<?xml version="1.0" standalone="no"?>
<!DOCTYPE svg PUBLIC "-//W3C//DTD SVG 1.1//EN" "http://www.w3.org/Graphics/SVG/1.1/DTD/svg11.dtd" >
<svg xmlns="http://www.w3.org/2000/svg">
    <defs>
        <font id="NimbusSansDOT-BlacExte">
            <font-face font-family="NimbusSansDOT-BlacExte"
                       units-per-em="1000"
                       ascent="667"
                       descent="-145"
                       bbox="-108 -252 1622 902"
                    />
            <missing-glyph horiz-adv-x="0" />
            
            <glyph glyph-name="!" unicode="&#x21;" horiz-adv-x="307" d=" M72,0 L72,201 L296,201 L296,0 M98,251 L61,667 L307,667 L271,251"/> 
            <glyph glyph-name="&quot;" unicode="&#x22;" horiz-adv-x="438" d=" M404,399 L296,399 L262,667 L438,667 M175,399 L67,399 L33,667 L209,667"/> 
            <glyph glyph-name="#" unicode="&#x23;" horiz-adv-x="882" d=" M659,180 L634,0 L500,0 L525,180 L352,180 L326,0 L192,0 L217,180 L52,180 L67,285 L232,285 L248,398 L83,398 L97,503 L263,503 L286,667 L420,667 L397,503 L570,503 L593,667 L728,667 L705,503 L882,503 L867,398 L690,398 L674,285 L851,285 L836,180 M531,398 L411,398 L395,285 L515,285"/> 
            <glyph glyph-name="$" unicode="&#x24;" horiz-adv-x="881" d=" M63,210 L375,210 Q383,180 403.5,168 Q424,156 470,156 Q578,156 578,200 Q578,222 553,229 Q539,233 418,248 Q268,266 183,295 Q67,334 67,459 Q67,595 236,654 Q302,677 418,684 L418,786 L523,786 L523,684 Q653,678 723,653 Q846,603 857,469 L559,469 Q552,502 533,513.5 Q514,525 465,525 Q370,525 370,483 Q370,464 392,455 Q407,450 525,438 Q672,425 758,394 Q816,374 848.5,329 Q881,284 881,223 Q881,148 834.5,93 Q788,38 699,9 Q630,-13 523,-17 L523,-123 L418,-123 L418,-17 Q241,-9 158,44 Q75,97 63,210"/> 
            <glyph glyph-name="%" unicode="&#x25;" horiz-adv-x="1102" d=" M257,676 Q361,676 419,629.5 Q477,583 477,501 Q477,418 419,371.5 Q361,325 258,325 Q153,325 95,371.5 Q37,418 37,503 Q37,583 96,629.5 Q155,676 257,676 M295,592 Q219,592 197.5,568 Q176,544 176,502 Q176,458 197.5,433.5 Q219,409 257,409 Q295,409 316.5,433.5 Q338,458 338,501 Q338,544 295,592 M415,0 L648,667 L724,667 L496,0 M882,342 Q986,342 1044,295.5 Q1102,249 1102,167 Q1102,84 1044,37.5 Q986,-9 883,-9 Q778,-9 720,37.5 Q662,84 662,169 Q662,249 721,295.5 Q780,342 882,342 M920,258 Q844,258 822.5,234 Q801,210 801,168 Q801,124 822.5,99.5 Q844,75 882,75 Q920,75 941.5,99.5 Q963,124 963,167 Q963,210 920,258"/> 
            <glyph glyph-name="&amp;" unicode="&#x26;" horiz-adv-x="921" d=" M831,373 L921,261 Q871,218 779,156 L921,0 L637,0 L597,46 Q464,-13 340,-13 Q202,-13 108,52 Q72,77 51,120.5 Q30,164 30,213 Q30,299 87.5,350.5 Q145,402 265,425 Q226,476 226,529 Q226,688 498,688 Q638,688 713.5,644.5 Q789,601 789,521 Q789,460 745,421 Q701,382 600,352 L683,261 Q726,290 760,315 Q795,343 831,373 M491,158 L357,309 Q313,299 294,280 Q275,261 275,228 Q275,188 309,160 Q343,132 393,132 Q433,132 491,158 M508,453 Q551,462 568.5,475.5 Q586,489 586,512 Q586,532 571,544.5 Q556,557 531,557 Q508,557 492,545 Q476,533 476,516 Q476,491 508,453"/> 
            <glyph glyph-name="'" unicode="&#x27;" horiz-adv-x="235" d=" M201,399 L67,399 L33,667 L235,667"/> 
            <glyph glyph-name="(" unicode="&#x28;" horiz-adv-x="436" d=" M436,667 L436,514 Q383,509 356,499 Q329,489 308,467 Q255,413 255,285 Q255,148 317,95 Q352,65 436,57 L436,-96 Q364,-96 326.5,-91 Q289,-86 242,-69 Q137,-31 84,68 Q39,153 39,285 Q39,479 141,574 Q240,667 416,667"/> 
            <glyph glyph-name=")" unicode="&#x29;" horiz-adv-x="449" d=" M52,-96 L52,57 Q105,62 132.5,72 Q160,82 180,104 Q233,158 233,286 Q233,423 171,476 Q150,493 125,501.5 Q100,510 52,514 L52,667 L73,667 Q248,667 347,574 Q449,478 449,285 Q449,41 282,-50 Q197,-96 52,-96"/> 
            <glyph glyph-name="*" unicode="&#x2A;" horiz-adv-x="445" d=" M156,444 L33,470 L72,588 L188,542 L174,667 L299,667 L291,542 L406,594 L445,475 L323,444 L408,351 L306,277 L240,383 L177,274 L76,347"/> 
            <glyph glyph-name="+" unicode="&#x2B;" horiz-adv-x="728" d=" M405,87 L405,264 L215,264 L215,397 L405,397 L405,573 L538,573 L538,397 L728,397 L728,264 L538,264 L538,87"/> 
            <glyph glyph-name="," unicode="&#x2C;" horiz-adv-x="271" d=" M54,0 L54,193 L271,193 L271,27 Q271,-23 253.5,-52 Q236,-81 192,-105 Q146,-131 73,-143 L54,-71 Q96,-64 115.5,-47.5 Q135,-31 137,0"/> 
            <glyph glyph-name="-" unicode="&#x2D;" horiz-adv-x="386" d=" M0,156 L0,359 L386,359 L386,156"/> 
            <glyph glyph-name="." unicode="&#x2E;" horiz-adv-x="271" d=" M54,0 L54,209 L271,209 L271,0"/> 
            <glyph glyph-name="/" unicode="&#x2F;" horiz-adv-x="424" d=" M-1,-97 L245,667 L424,667 L177,-97"/> 
            <glyph glyph-name="0" unicode="&#x30;" horiz-adv-x="911" d=" M471,685 Q687,685 812,578 Q911,493 911,333 Q911,174 812,89 Q686,-18 473,-18 Q254,-18 130,89 Q31,174 31,338 Q31,410 57,473.5 Q83,537 130,578 Q254,685 471,685 M471,516 Q395,516 351.5,468 Q308,420 308,336 Q308,248 351,199.5 Q394,151 471,151 Q548,151 591,199.5 Q634,248 634,333 Q634,419 591,467.5 Q548,516 471,516"/> 
            <glyph glyph-name="1" unicode="&#x31;" horiz-adv-x="637" d=" M378,0 L378,440 Q316,414 265,406 L265,563 Q390,613 444,667 L637,667 L637,0"/> 
            <glyph glyph-name="2" unicode="&#x32;" horiz-adv-x="911" d=" M896,169 L896,0 L32,0 Q37,99 59.5,162 Q82,225 138,273.5 Q194,322 280.5,352 Q367,382 509,409 Q565,421 586.5,433 Q608,445 608,465 Q608,515 498,515 Q428,515 389,493 Q358,474 349,427 L39,427 Q44,491 66.5,532.5 Q89,574 135,608 Q239,685 482,685 Q693,685 802,625 Q911,565 911,448 Q911,322 777,273 Q711,249 537,225 Q440,212 406,202.5 Q372,193 331,169"/> 
            <glyph glyph-name="3" unicode="&#x33;" horiz-adv-x="918" d=" M33,226 L336,226 Q345,188 368,172 Q400,151 473,151 Q547,151 580.5,168 Q614,185 614,222 Q614,255 587,266 Q572,274 506,274 L422,274 L422,436 L480,436 Q550,437 563,440 Q590,448 590,473 Q590,525 482,525 Q442,525 408,517 Q385,512 373.5,503 Q362,494 352,473 L48,473 Q57,535 82,571 Q107,607 160,634 Q264,685 494,685 Q893,685 893,486 Q893,440 870,414 Q847,388 789,368 Q849,347 875,321 Q918,278 918,213 Q918,101 804.5,41.5 Q691,-18 476,-18 Q209,-18 114,57 Q77,87 59,124.5 Q41,162 33,226"/> 
            <glyph glyph-name="4" unicode="&#x34;" horiz-adv-x="900" d=" M523,0 L523,106 L37,106 L37,287 L426,667 L782,667 L782,295 L900,295 L900,106 L782,106 L782,0 M523,295 L523,493 L320,295"/> 
            <glyph glyph-name="5" unicode="&#x35;" horiz-adv-x="909" d=" M27,221 L306,221 Q322,183 358,166.5 Q394,150 461,150 Q529,150 567.5,170.5 Q606,191 606,228 Q606,306 452,306 Q374,306 313,279 L67,279 L112,667 L856,667 L856,501 L300,501 L291,427 Q390,461 535,461 Q714,461 811.5,402 Q909,343 909,235 Q909,107 797.5,44.5 Q686,-18 457,-18 Q212,-18 109,54 Q65,84 47,120.5 Q29,157 27,221"/> 
            <glyph glyph-name="6" unicode="&#x36;" horiz-adv-x="911" d=" M882,472 L588,472 Q577,497 558,505.5 Q539,514 497,514 Q408,514 363,475 Q337,452 328,399 Q430,431 552,431 Q723,431 817,375 Q911,319 911,218 Q911,104 799,43 Q687,-18 478,-18 Q256,-18 143,70 Q31,159 31,333 Q31,508 149,596.5 Q267,685 500,685 Q710,685 815,604 Q846,580 861.5,550 Q877,520 882,472 M475,280 Q415,280 378.5,262.5 Q342,245 342,216 Q342,185 378,167.5 Q414,150 476,150 Q536,150 572,168 Q608,186 608,215 Q608,245 572,262.5 Q536,280 475,280"/> 
            <glyph glyph-name="7" unicode="&#x37;" horiz-adv-x="904" d=" M479,0 L130,0 Q151,141 238,233 Q297,291 487,411 Q554,455 592,498 L39,498 L39,667 L904,667 Q904,547 863,475.5 Q822,404 689,292 Q582,203 538.5,142 Q495,81 479,0"/> 
            <glyph glyph-name="8" unicode="&#x38;" horiz-adv-x="906" d=" M128,360 Q84,383 65.5,411.5 Q47,440 47,484 Q47,581 136,623 Q268,685 471,685 Q673,685 807,623 Q895,581 895,483 Q895,439 876.5,411 Q858,383 815,360 Q864,335 885,301 Q906,267 906,214 Q906,110 821,53 Q763,13 685.5,-2.5 Q608,-18 471,-18 Q334,-18 256.5,-2.5 Q179,13 121,53 Q36,110 36,214 Q36,267 57,300.5 Q78,334 128,360 M471,274 Q398,274 364.5,259.5 Q331,245 331,214 Q331,180 363.5,165.5 Q396,151 472,151 Q545,151 578,165.5 Q611,180 611,212 Q611,245 578.5,259.5 Q546,274 471,274 M471,524 Q404,524 374.5,513.5 Q345,503 345,479 Q345,453 373.5,442 Q402,431 470,431 Q538,431 567.5,442 Q597,453 597,478 Q597,503 568,513.5 Q539,524 471,524"/> 
            <glyph glyph-name="9" unicode="&#x39;" horiz-adv-x="909" d=" M53,203 L338,203 Q368,144 467,144 Q543,144 583,182 Q610,207 622,264 Q550,233 424,233 Q35,233 35,450 Q35,504 62.5,550.5 Q90,597 139,622 Q257,685 451,685 Q653,685 776,608 Q909,525 909,335 Q909,-18 472,-18 Q246,-18 135,61 Q73,105 53,203 M473,516 Q339,516 339,449 Q339,380 474,380 Q606,380 606,448 Q606,516 473,516"/> 
            <glyph glyph-name=":" unicode="&#x3A;" horiz-adv-x="271" d=" M54,292 L54,501 L271,501 L271,292 M54,0 L54,209 L271,209 L271,0"/> 
            <glyph glyph-name=";" unicode="&#x3B;" horiz-adv-x="271" d=" M54,292 L54,501 L271,501 L271,292 M54,0 L54,193 L271,193 L271,27 Q271,-23 253.5,-52 Q236,-81 192,-105 Q146,-131 73,-143 L54,-71 Q96,-64 115.5,-47.5 Q135,-31 137,0"/> 
            <glyph glyph-name="&lt;" unicode="&#x3C;" horiz-adv-x="466" d=" M466,680 L466,462 L264,339 L465,215 L466,-1 L33,249 L33,430"/> 
            <glyph glyph-name="=" unicode="&#x3D;" horiz-adv-x="728" d=" M215,355 L215,475 L728,475 L728,355 M215,185 L215,305 L728,305 L728,185"/> 
            <glyph glyph-name="&gt;" unicode="&#x3E;" horiz-adv-x="466" d=" M33,-1 L33,216 L236,340 L34,464 L33,680 L466,430 L466,248"/> 
            <glyph glyph-name="?" unicode="&#x3F;" horiz-adv-x="782" d=" M285,0 L285,211 L513,211 L513,0 M513,254 L285,254 Q291,322 318.5,354.5 Q346,387 423,417 Q472,437 489.5,453 Q507,469 507,492 Q507,519 481,534.5 Q455,550 409,550 Q348,550 319,527 Q290,504 285,451 L20,451 Q23,508 40.5,545 Q58,582 96,612 Q192,688 402,688 Q582,688 682,632 Q782,576 782,476 Q782,434 762,399.5 Q742,365 707,346 Q664,325 571,299 Q544,291 533.5,282.5 Q523,274 513,254"/> 
            <glyph glyph-name="@" unicode="&#x40;" horiz-adv-x="855" d=" M577,493 L676,493 L631,298 Q623,262 623,253 Q623,237 631,228 Q639,219 653,219 Q693,219 725.5,271.5 Q758,324 758,387 Q758,481 695,541 Q628,605 472,605 Q298,605 218,525 Q139,448 139,326 Q139,212 211,137 Q250,96 307,78.5 Q364,61 455,61 Q591,61 696,94 L719,12 Q611,-21 452,-21 Q337,-21 262,2 Q187,25 134,77 Q33,176 33,328 Q33,400 59.5,466.5 Q86,533 134,581 Q186,633 244,653 Q349,687 478,687 Q583,687 649.5,667.5 Q716,648 763,603 Q806,563 830.5,506.5 Q855,450 855,391 Q855,295 793.5,223 Q732,151 650,151 Q615,151 589,166.5 Q563,182 555,208 Q531,178 490.5,160.5 Q450,143 406,143 Q341,143 298,188.5 Q255,234 255,303 Q255,385 311,449 Q338,480 367.5,492 Q397,504 443,504 Q531,504 567,451 M457,415 Q420,415 392,382 Q364,349 364,305 Q364,271 383.5,249.5 Q403,228 434,228 Q471,228 498,261.5 Q525,295 525,340 Q525,373 506.5,394 Q488,415 457,415"/> 
            <glyph glyph-name="A" unicode="&#x41;" horiz-adv-x="864" d=" M-7,0 L260,667 L597,667 L864,0 L585,0 L557,61 L285,61 L260,0 M331,231 L507,231 L421,476"/> 
            <glyph glyph-name="B" unicode="&#x42;" horiz-adv-x="931" d=" M65,0 L65,667 L592,667 Q737,667 797,643 Q840,626 865,585.5 Q890,545 890,494 Q890,451 874,423 Q858,395 819,369 Q854,353 870,341.5 Q886,330 900,310 Q931,262 931,201 Q931,148 910,104 Q889,60 853,37 Q819,16 771.5,8 Q724,0 636,0 M320,162 L534,162 Q600,163 613.5,164 Q627,165 637,171 Q658,182 658,210 Q658,240 631,250 Q618,255 534,256 L320,256 M320,419 L505,419 Q565,419 586,423 Q618,429 618,463 Q618,489 596,497.5 Q574,506 506,506 L320,506"/> 
            <glyph glyph-name="C" unicode="&#x43;" horiz-adv-x="954" d=" M661,249 L954,249 Q946,176 920,131.5 Q894,87 838,52 Q775,12 696.5,-4.5 Q618,-21 494,-21 Q372,-21 293.5,-0.5 Q215,20 156,67 Q37,160 37,337 Q37,514 153,599 Q274,688 500,688 Q765,688 882,578 Q940,521 954,412 L661,412 Q645,470 608.5,494 Q572,518 501,518 Q411,518 364.5,473 Q318,428 318,341 Q318,250 366,199.5 Q414,149 501,149 Q580,149 618,182 Q638,200 661,249"/> 
            <glyph glyph-name="D" unicode="&#x44;" horiz-adv-x="917" d=" M65,0 L65,667 L507,667 Q609,667 666.5,657.5 Q724,648 768,624 Q917,543 917,325 Q917,92 749,25 Q685,0 511,0 M320,170 L443,170 Q569,170 604,205 Q644,245 644,333 Q644,467 549,490 Q523,497 440,497 L320,497"/> 
            <glyph glyph-name="E" unicode="&#x45;" horiz-adv-x="851" d=" M65,0 L65,667 L820,667 L820,497 L320,497 L320,423 L734,423 L734,253 L320,253 L320,170 L851,170 L851,0"/> 
            <glyph glyph-name="F" unicode="&#x46;" horiz-adv-x="828" d=" M65,0 L65,667 L828,667 L828,497 L320,497 L320,419 L740,419 L740,249 L320,249 L320,0"/> 
            <glyph glyph-name="G" unicode="&#x47;" horiz-adv-x="943" d=" M943,371 L943,2 L833,2 L799,74 Q754,30 698,11 Q604,-21 478,-21 Q267,-21 152,70.5 Q37,162 37,331 Q37,417 70,488.5 Q103,560 163,603 Q281,688 491,688 Q715,688 834,602 Q884,566 909,527 Q934,488 943,431 L640,431 Q608,518 494,518 Q411,518 364.5,470.5 Q318,423 318,339 Q318,247 370.5,198 Q423,149 521,149 Q646,149 674,226 L561,226 L561,371"/> 
            <glyph glyph-name="H" unicode="&#x48;" horiz-adv-x="873" d=" M65,0 L65,667 L320,667 L320,432 L618,432 L618,667 L873,667 L873,0 L618,0 L618,262 L320,262 L320,0"/> 
            <glyph glyph-name="I" unicode="&#x49;" horiz-adv-x="322" d=" M67,0 L67,667 L322,667 L322,0"/> 
            <glyph glyph-name="J" unicode="&#x4A;" horiz-adv-x="740" d=" M485,667 L740,667 L740,316 Q740,202 734,164 Q728,126 704,91 Q628,-21 394,-21 Q261,-21 170.5,11.5 Q80,44 45,104 Q16,154 16,280 L270,280 Q273,206 296.5,177.5 Q320,149 379,149 Q452,149 471,196 Q485,235 485,333"/> 
            <glyph glyph-name="K" unicode="&#x4B;" horiz-adv-x="944" d=" M65,0 L65,667 L320,667 L320,416 L580,667 L926,667 L649,429 L944,0 L621,0 L437,280 L320,169 L320,0"/> 
            <glyph glyph-name="L" unicode="&#x4C;" horiz-adv-x="797" d=" M65,0 L65,667 L320,667 L320,170 L797,170 L797,0"/> 
            <glyph glyph-name="M" unicode="&#x4D;" horiz-adv-x="1110" d=" M65,0 L65,667 L484,667 L591,361 L694,667 L1110,667 L1110,0 L855,0 L855,460 L694,0 L484,0 L320,460 L320,0"/> 
            <glyph glyph-name="N" unicode="&#x4E;" horiz-adv-x="891" d=" M65,0 L65,667 L353,667 L636,302 L636,667 L891,667 L891,0 L611,0 L320,362 L320,0"/> 
            <glyph glyph-name="O" unicode="&#x4F;" horiz-adv-x="945" d=" M491,688 Q615,688 697.5,666 Q780,644 842,594 Q945,512 945,333 Q945,152 834.5,65 Q724,-22 494,-22 Q369,-22 285.5,0 Q202,22 140,72 Q37,156 37,339 Q37,511 140,594 Q257,688 491,688 M491,518 Q407,518 362.5,471 Q318,424 318,336 Q318,148 492,148 Q576,148 620,195 Q664,242 664,333 Q664,424 620,471 Q576,518 491,518"/> 
            <glyph glyph-name="P" unicode="&#x50;" horiz-adv-x="866" d=" M65,0 L65,667 L563,667 Q700,667 754,642 Q866,593 866,445 Q866,273 722,235 Q678,224 565,224 L320,224 L320,0 M320,385 L480,385 Q548,385 564,395 Q593,413 593,454 Q593,491 569,504.5 Q545,518 481,518 L320,518"/> 
            <glyph glyph-name="Q" unicode="&#x51;" horiz-adv-x="944" d=" M924,-22 L801,-141 L670,-6 Q581,-22 489,-22 Q256,-22 146.5,65 Q37,152 37,336 Q37,512 139,593 Q257,688 493,688 Q724,688 840,595 Q944,510 944,332 Q944,206 895,130 Q876,100 835,67 M593,314 L652,254 Q663,291 663,329 Q663,518 491,518 Q318,518 318,332 Q318,148 491,148 Q506,148 517,150 L472,195"/> 
            <glyph glyph-name="R" unicode="&#x52;" horiz-adv-x="863" d=" M65,0 L65,667 L559,667 Q655,667 693.5,662.5 Q732,658 766,644 Q809,626 834,581 Q859,536 859,475 Q859,391 821,348 Q794,319 728,304 Q781,289 802.5,270 Q824,251 833,213 Q842,175 845,84 Q847,45 849.5,31.5 Q852,18 863,0 L596,0 Q591,33 588,88 Q586,146 582.5,172 Q579,198 564.5,215.5 Q550,233 530,236 Q510,239 465,239 L320,239 L320,0 M320,380 L489,380 Q544,380 560,391 Q586,409 586,447 Q586,483 565.5,497 Q545,511 491,511 L320,511"/> 
            <glyph glyph-name="S" unicode="&#x53;" horiz-adv-x="899" d=" M29,200 L383,200 Q400,172 427.5,160.5 Q455,149 502,149 Q593,149 593,192 Q593,218 562,227 Q537,234 373,250 Q244,264 163,291 Q35,333 35,458 Q35,571 144,629.5 Q253,688 462,688 Q675,688 777,622 Q818,596 840,563 Q862,530 878,471 L545,471 Q522,532 425,532 Q385,532 362,520 Q339,508 339,488 Q339,475 345,468 Q351,461 377.5,454 Q404,447 444,441.5 Q484,436 567,428 Q706,414 776,388 Q899,341 899,214 Q899,95 790,37 Q681,-21 457,-21 Q240,-21 139,35 Q85,64 60.5,101 Q36,138 29,200"/> 
            <glyph glyph-name="T" unicode="&#x54;" horiz-adv-x="776" d=" M264,0 L264,497 L10,497 L10,667 L776,667 L776,497 L519,497 L519,0"/> 
            <glyph glyph-name="U" unicode="&#x55;" horiz-adv-x="860" d=" M59,667 L314,667 L314,325 Q314,231 348,190 Q382,149 460,149 Q538,149 571.5,189.5 Q605,230 605,325 L605,667 L860,667 L860,314 Q860,212 849,166 Q838,120 803,80 Q717,-21 460,-21 Q179,-21 99,103 Q75,139 67,180.5 Q59,222 59,307"/> 
            <glyph glyph-name="V" unicode="&#x56;" horiz-adv-x="873" d=" M290,0 L-7,667 L272,667 L441,264 L605,667 L873,667 L589,0"/> 
            <glyph glyph-name="W" unicode="&#x57;" horiz-adv-x="1245" d=" M226,0 L-7,667 L263,667 L382,302 L496,667 L744,667 L864,302 L975,667 L1245,667 L1021,0 L729,0 L618,354 L511,0"/> 
            <glyph glyph-name="X" unicode="&#x58;" horiz-adv-x="888" d=" M-14,0 L271,356 L15,667 L345,667 L446,539 L543,667 L862,667 L603,349 L888,0 L555,0 L431,161 L302,0"/> 
            <glyph glyph-name="Y" unicode="&#x59;" horiz-adv-x="866" d=" M295,0 L295,168 L-13,667 L287,667 L428,420 L571,667 L866,667 L551,168 L551,0"/> 
            <glyph glyph-name="Z" unicode="&#x5A;" horiz-adv-x="835" d=" M27,0 L27,148 L436,497 L47,497 L47,667 L835,667 L835,514 L434,170 L827,170 L827,0"/> 
            <glyph glyph-name="[" unicode="&#x5B;" horiz-adv-x="441" d=" M59,-97 L59,667 L441,667 L441,514 L271,514 L271,56 L441,56 L441,-97"/> 
            <glyph glyph-name="\" unicode="&#x5C;" horiz-adv-x="444" d=" M444,-97 L266,-97 L19,667 L197,667"/> 
            <glyph glyph-name="]" unicode="&#x5D;" horiz-adv-x="430" d=" M430,667 L430,-97 L47,-97 L47,56 L218,56 L218,514 L47,514 L47,667"/> 
            <glyph glyph-name="^" unicode="&#x5E;" horiz-adv-x="501" d=" M189,327 L0,327 L130,672 L371,672 L501,327 L312,327 L251,526"/> 
            <glyph glyph-name="_" unicode="&#x5F;" horiz-adv-x="500" d=" M0,-42 L500,-42 L500,-168 L0,-168"/> 
            <glyph glyph-name="`" unicode="&#x60;" horiz-adv-x="420" d=" M192,564 L53,690 L357,690 L420,564"/> 
            <glyph glyph-name="a" unicode="&#x61;" horiz-adv-x="803" d=" M323,362 L72,352 Q84,406 108,436 Q132,466 180,487 Q260,523 417,523 Q681,523 749,442 Q768,420 775,390.5 Q782,361 782,306 L782,111 Q782,65 786,43 Q790,21 803,0 L562,0 L558,45 Q501,13 446,0 Q391,-13 315,-13 Q181,-13 106,32.5 Q31,78 31,160 Q31,246 120,280 Q233,321 444,326 Q512,327 531,331.5 Q550,336 550,350 Q550,370 516.5,382.5 Q483,395 431,395 Q346,395 323,362 M552,215 L552,227 Q520,222 460,220 Q388,219 351,215 Q304,207 304,174 Q304,132 396,132 Q485,132 518.5,150 Q552,168 552,215"/> 
            <glyph glyph-name="b" unicode="&#x62;" horiz-adv-x="802" d=" M54,667 L283,667 L283,466 Q385,514 488,514 Q632,514 717,444 Q802,374 802,255 Q802,131 718.5,59 Q635,-13 491,-13 Q428,-13 383.5,1 Q339,15 283,52 L283,0 L54,0 M477,352 Q353,352 317.5,325 Q282,298 282,251 Q282,201 316.5,173.5 Q351,146 415,146 Q477,146 512,173 Q547,200 547,249 Q547,298 477,352"/> 
            <glyph glyph-name="c" unicode="&#x63;" horiz-adv-x="810" d=" M554,218 L810,218 Q802,159 786,123 Q770,87 738,58 Q651,-21 441,-21 Q259,-21 156,28 Q98,56 65,114.5 Q32,173 32,249 Q32,335 69.5,395.5 Q107,456 177,483 Q281,523 424,523 Q527,523 617,500 Q744,466 789,373 Q802,347 810,303 L547,303 Q517,376 424,376 Q360,376 323.5,342.5 Q287,309 287,250 Q287,190 323.5,156 Q360,122 425,122 Q481,122 511.5,145 Q542,168 554,218"/> 
            <glyph glyph-name="d" unicode="&#x64;" horiz-adv-x="780" d=" M780,667 L780,0 L551,0 L551,52 Q495,15 450,1 Q405,-13 342,-13 Q199,-13 115.5,59 Q32,131 32,255 Q32,374 117,444 Q202,514 346,514 Q451,514 551,466 L551,667 M419,352 Q357,352 322,325 Q287,298 287,249 Q287,200 322,173 Q357,146 419,146 Q482,146 517,173 Q552,200 552,247 Q552,297 517.5,324.5 Q483,352 419,352"/> 
            <glyph glyph-name="e" unicode="&#x65;" horiz-adv-x="786" d=" M786,189 L285,189 Q298,147 326,131 Q364,111 428,111 Q466,111 486.5,118.5 Q507,126 525,146 L786,146 Q773,100 753,73.5 Q733,47 695,27 Q603,-21 439,-21 Q238,-21 138,38 Q89,68 60.5,126 Q32,184 32,255 Q32,317 54.5,368 Q77,419 117,447 Q222,522 412,522 Q535,522 623,487 Q711,452 748,389 Q768,355 776.5,311.5 Q785,268 786,189 M287,316 L539,316 Q517,386 414,386 Q312,386 287,316"/> 
            <glyph glyph-name="f" unicode="&#x66;" horiz-adv-x="401" d=" M82,0 L82,366 L7,366 L7,501 L82,501 L82,548 Q82,627 120.5,657.5 Q159,688 259,688 Q298,688 401,682 L401,548 Q340,548 326.5,540.5 Q313,533 311,501 L401,501 L401,366 L311,366 L311,0"/> 
            <glyph glyph-name="g" unicode="&#x67;" horiz-adv-x="789" d=" M789,501 L789,102 Q789,-8 752,-59 Q719,-106 631,-130 Q536,-155 394,-155 Q228,-155 149,-117 Q70,-79 53,7 L325,7 Q340,-12 358.5,-19 Q377,-26 413,-26 Q500,-26 533,10 Q555,33 560,92 Q488,44 366,44 Q191,44 101,110 Q69,134 51,177 Q33,220 33,270 Q33,384 116,449 Q199,514 344,514 Q487,514 560,447 L560,501 M426,352 Q362,352 325,328.5 Q288,305 288,264 Q288,222 324.5,198 Q361,174 425,174 Q486,174 523,199 Q560,224 560,264 Q560,304 523.5,328 Q487,352 426,352"/> 
            <glyph glyph-name="h" unicode="&#x68;" horiz-adv-x="753" d=" M54,0 L54,667 L283,667 L283,453 Q342,487 393.5,500.5 Q445,514 515,514 Q692,514 736,405 Q747,379 750,350 Q753,321 753,249 L753,0 L524,0 L524,207 Q524,285 507,316 Q485,354 415,354 Q331,354 300,297 Q283,269 283,207 L283,0"/> 
            <glyph glyph-name="i" unicode="&#x69;" horiz-adv-x="283" d=" M54,0 L54,501 L283,501 L283,0 M54,548 L54,667 L283,667 L283,548"/> 
            <glyph glyph-name="j" unicode="&#x6A;" horiz-adv-x="290" d=" M-31,-136 L-31,-3 L-16,-4 L11,-5 Q40,-5 50.5,8.5 Q61,22 61,60 L61,501 L290,501 L290,47 Q290,-63 277,-96 Q252,-158 130,-158 Q60,-158 -31,-136 M61,548 L61,667 L290,667 L290,548"/> 
            <glyph glyph-name="k" unicode="&#x6B;" horiz-adv-x="778" d=" M54,0 L54,667 L283,667 L283,346 L448,501 L760,501 L554,325 L778,0 L491,0 L370,193 L283,116 L283,0"/> 
            <glyph glyph-name="l" unicode="&#x6C;" horiz-adv-x="283" d=" M54,0 L54,667 L283,667 L283,0"/> 
            <glyph glyph-name="m" unicode="&#x6D;" horiz-adv-x="1215" d=" M54,0 L54,501 L274,501 L274,438 Q370,514 512,514 Q588,514 636,496.5 Q684,479 720,438 Q775,479 833.5,496.5 Q892,514 973,514 Q1149,514 1195,403 Q1215,357 1215,268 L1215,0 L986,0 L986,192 Q986,261 977,291 Q956,354 876,354 Q801,354 770,310 Q748,278 748,210 L748,0 L519,0 L519,193 Q519,274 508,303 Q488,354 410,354 Q333,354 303,305 Q283,275 283,211 L283,0"/> 
            <glyph glyph-name="n" unicode="&#x6E;" horiz-adv-x="753" d=" M54,0 L54,501 L283,501 L283,453 Q343,487 394,500.5 Q445,514 514,514 Q692,514 736,405 Q747,379 750,350 Q753,321 753,249 L753,0 L524,0 L524,207 Q524,285 507,316 Q485,354 415,354 Q331,354 300,297 Q283,269 283,207 L283,0"/> 
            <glyph glyph-name="o" unicode="&#x6F;" horiz-adv-x="813" d=" M423,523 Q565,523 668,484 Q738,456 775.5,396 Q813,336 813,251 Q813,166 775.5,106 Q738,46 668,19 Q568,-21 424,-21 Q279,-21 177,19 Q32,75 32,256 Q32,337 70.5,397 Q109,457 177,484 Q280,523 423,523 M483,378 Q363,378 325,343 Q287,308 287,253 Q287,195 324,159.5 Q361,124 423,124 Q483,124 520.5,159.5 Q558,195 558,251 Q558,307 483,378"/> 
            <glyph glyph-name="p" unicode="&#x70;" horiz-adv-x="810" d=" M54,501 L283,501 L283,454 Q330,488 375.5,501 Q421,514 493,514 Q625,514 707,457 Q810,383 810,251 Q810,191 786.5,138 Q763,85 721,51 Q641,-13 489,-13 Q362,-13 283,39 L283,-145 L54,-145 M555,354 Q283,354 283,253 Q283,148 419,148 Q555,148 555,354"/> 
            <glyph glyph-name="q" unicode="&#x71;" horiz-adv-x="789" d=" M789,501 L789,-145 L560,-145 L560,39 Q479,-13 354,-13 Q202,-13 122,51 Q81,85 57,138 Q33,191 33,251 Q33,383 136,457 Q216,514 351,514 Q423,514 468.5,501 Q514,488 560,454 L560,501 M424,354 Q288,354 288,251 Q288,148 424,148 Q561,148 561,249 Q561,354 424,354"/> 
            <glyph glyph-name="r" unicode="&#x72;" horiz-adv-x="663" d=" M54,0 L54,501 L283,501 L283,453 Q368,514 470,514 Q616,514 649,410 Q662,371 663,268 L433,268 Q431,312 415,331 Q399,350 363,350 Q321,350 302,322.5 Q283,295 283,234 L283,0"/> 
            <glyph glyph-name="s" unicode="&#x73;" horiz-adv-x="744" d=" M21,164 L298,150 Q311,130 332,122 Q353,114 392,114 Q460,114 460,145 Q460,162 436,166 Q397,173 237,194 Q123,210 74.5,246 Q26,282 26,350 Q26,439 105.5,481 Q185,523 352,523 Q564,523 650,468 Q684,446 700.5,421.5 Q717,397 727,352 L433,362 Q413,385 351,385 Q291,385 291,359 Q291,345 307,339.5 Q323,334 368,332 Q577,320 660.5,280.5 Q744,241 744,154 Q744,-21 399,-21 Q181,-21 96,35 Q59,60 43,87.5 Q27,115 21,164"/> 
            <glyph glyph-name="t" unicode="&#x74;" horiz-adv-x="390" d=" M390,129 L390,0 L253,0 Q181,0 145.5,12 Q110,24 94,54 Q85,72 83,90 Q81,108 81,180 L81,366 L0,366 L0,501 L81,501 L81,667 L310,667 L310,501 L390,501 L390,366 L310,366 L310,182 Q310,148 321.5,138.5 Q333,129 374,129"/> 
            <glyph glyph-name="u" unicode="&#x75;" horiz-adv-x="753" d=" M753,501 L753,0 L524,0 L524,48 Q464,14 412.5,0.5 Q361,-13 292,-13 Q118,-13 72,92 Q61,117 57.5,148 Q54,179 54,251 L54,501 L283,501 L283,294 Q283,216 300,185 Q322,147 392,147 Q476,147 507,203 Q524,233 524,294 L524,501"/> 
            <glyph glyph-name="v" unicode="&#x76;" horiz-adv-x="714" d=" M228,0 L-7,501 L247,501 L361,228 L474,501 L714,501 L483,0"/> 
            <glyph glyph-name="w" unicode="&#x77;" horiz-adv-x="1184" d=" M237,0 L-7,501 L247,501 L364,257 L474,501 L728,501 L838,257 L950,501 L1184,501 L953,0 L715,0 L596,257 L467,0"/> 
            <glyph glyph-name="x" unicode="&#x78;" horiz-adv-x="790" d=" M790,0 L500,0 L397,115 L282,0 L-16,0 L243,269 L22,501 L314,501 L401,403 L489,501 L774,501 L552,267"/> 
            <glyph glyph-name="y" unicode="&#x79;" horiz-adv-x="727" d=" M55,-139 L55,30 Q115,1 166,1 Q194,1 227,10 L-7,501 L250,501 L376,215 L490,501 L727,501 L583,144 Q505,-49 452,-100 Q392,-158 240,-158 Q151,-158 55,-139"/> 
            <glyph glyph-name="z" unicode="&#x7A;" horiz-adv-x="687" d=" M20,0 L20,127 L316,348 L49,348 L49,501 L687,501 L687,376 L364,153 L680,153 L680,0"/> 
            <glyph glyph-name="{" unicode="&#x7B;" horiz-adv-x="421" d=" M268,469 L268,402 Q268,346 240,318 Q229,306 188,287 Q234,267 251,242 Q268,217 268,172 L268,104 Q269,61 280.5,50.5 Q292,40 342,40 L421,40 L421,-97 L274,-97 Q165,-97 118,-66.5 Q71,-36 71,35 L71,163 Q71,201 59.5,219 Q48,237 19,242 L19,340 Q71,350 71,410 L71,539 Q71,608 117.5,637.5 Q164,667 273,667 L421,667 L421,534 L342,534 Q292,534 280.5,524 Q269,514 268,469"/> 
            <glyph glyph-name="|" unicode="&#x7C;" horiz-adv-x="360" d=" M140,667 L360,667 L360,-167 L140,-167"/> 
            <glyph glyph-name="}" unicode="&#x7D;" horiz-adv-x="469" d=" M220,101 L220,168 Q220,224 248,252 Q261,265 300,283 Q254,303 237,328 Q220,353 220,398 L220,466 Q219,509 207.5,519.5 Q196,530 146,530 L67,530 L67,667 L214,667 Q323,667 370,636.5 Q417,606 417,535 L417,407 Q417,369 428.5,351 Q440,333 469,328 L469,230 Q441,224 429,207.5 Q417,191 417,160 L417,31 Q417,-38 370.5,-67.5 Q324,-97 215,-97 L67,-97 L67,36 L146,36 Q196,36 207.5,46 Q219,56 220,101"/> 
            <glyph glyph-name="~" unicode="&#x7E;" horiz-adv-x="579" d=" M194,525 L91,613 Q123,698 161,735 Q199,772 253,772 Q271,772 289.5,766.5 Q308,761 395,732 Q413,725 424,725 Q442,725 456,742 Q462,748 476,775 L579,688 Q546,604 510,567 Q471,526 418,526 Q393,526 271,569 Q256,574 244,574 Q219,574 194,525"/> 
            <glyph glyph-name="Č" unicode="&#x10C;" horiz-adv-x="954" d=" M661,249 L954,249 Q946,176 920,131.5 Q894,87 838,52 Q775,12 696.5,-4.5 Q618,-21 494,-21 Q372,-21 293.5,-0.5 Q215,20 156,67 Q37,160 37,337 Q37,514 153,599 Q274,688 500,688 Q765,688 882,578 Q940,521 954,412 L661,412 Q645,470 608.5,494 Q572,518 501,518 Q411,518 364.5,473 Q318,428 318,341 Q318,250 366,199.5 Q414,149 501,149 Q580,149 618,182 Q638,200 661,249 M786,867 L615,740 L348,740 L193,867 L458,867 L501,824 L547,867"/> 
            <glyph glyph-name="č" unicode="&#x10D;" horiz-adv-x="810" d=" M554,218 L810,218 Q802,159 786,123 Q770,87 738,58 Q651,-21 441,-21 Q259,-21 156,28 Q98,56 65,114.5 Q32,173 32,249 Q32,335 69.5,395.5 Q107,456 177,483 Q281,523 424,523 Q527,523 617,500 Q744,466 789,373 Q802,347 810,303 L547,303 Q517,376 424,376 Q360,376 323.5,342.5 Q287,309 287,250 Q287,190 323.5,156 Q360,122 425,122 Q481,122 511.5,145 Q542,168 554,218 M716,690 L545,565 L278,565 L123,690 L388,690 L431,648 L477,690"/> 
            <glyph glyph-name="Ď" unicode="&#x10E;" horiz-adv-x="917" d=" M65,0 L65,667 L507,667 Q609,667 666.5,657.5 Q724,648 768,624 Q917,543 917,325 Q917,92 749,25 Q685,0 511,0 M320,170 L443,170 Q569,170 604,205 Q644,245 644,333 Q644,467 549,490 Q523,497 440,497 L320,497 M753,867 L582,740 L315,740 L160,867 L425,867 L468,824 L514,867"/> 
            <glyph glyph-name="ď" unicode="&#x10F;" horiz-adv-x="1076" d=" M780,667 L780,0 L551,0 L551,52 Q495,15 450,1 Q405,-13 342,-13 Q199,-13 115.5,59 Q32,131 32,255 Q32,374 117,444 Q202,514 346,514 Q451,514 551,466 L551,667 M419,352 Q357,352 322,325 Q287,298 287,249 Q287,200 322,173 Q357,146 419,146 Q482,146 517,173 Q552,200 552,247 Q552,297 517.5,324.5 Q483,352 419,352 M819,426 L857,667 L1076,667 L950,426"/> 
            <glyph glyph-name="Đ" unicode="&#x110;" horiz-adv-x="916" d=" M65,0 L65,300 L5,300 L5,390 L65,390 L65,667 L506,667 Q610,667 665.5,658 Q721,649 767,624 Q916,543 916,324 Q916,92 748,26 Q709,10 662,5 Q615,0 510,0 M320,170 L443,170 Q505,170 534.5,174.5 Q564,179 587,193 Q643,225 643,332 Q643,465 549,490 Q522,497 440,497 L320,497 L320,390 L446,390 L446,300 L320,300"/> 
            <glyph glyph-name="đ" unicode="&#x111;" horiz-adv-x="844" d=" M780,619 L844,619 L844,550 L780,550 L780,0 L551,0 L551,52 Q495,15 450.5,1 Q406,-13 343,-13 Q199,-13 115.5,59 Q32,131 32,255 Q32,374 117,444 Q202,514 346,514 Q449,514 551,466 L551,550 L435,550 L435,619 L551,619 L551,667 L780,667 M419,352 Q357,352 322,325 Q287,298 287,249 Q287,200 322,173 Q357,146 420,146 Q482,146 517,173 Q552,200 552,247 Q552,297 517.5,324.5 Q483,352 419,352"/> 
            <glyph glyph-name="Ē" unicode="&#x112;" horiz-adv-x="851" d=" M65,0 L65,667 L820,667 L820,497 L320,497 L320,423 L734,423 L734,253 L320,253 L320,170 L851,170 L851,0 M163,756 L163,848 L749,848 L749,756"/> 
            <glyph glyph-name="ē" unicode="&#x113;" horiz-adv-x="786" d=" M786,189 L285,189 Q298,147 326,131 Q364,111 428,111 Q466,111 486.5,118.5 Q507,126 525,146 L786,146 Q773,100 753,73.5 Q733,47 695,27 Q603,-21 439,-21 Q238,-21 138,38 Q89,68 60.5,126 Q32,184 32,255 Q32,317 54.5,368 Q77,419 117,447 Q222,522 412,522 Q535,522 623,487 Q711,452 748,389 Q768,355 776.5,311.5 Q785,268 786,189 M287,316 L539,316 Q517,386 414,386 Q312,386 287,316 M140,584 L140,673 L702,673 L702,584"/> 
            <glyph glyph-name="Ė" unicode="&#x116;" horiz-adv-x="851" d=" M65,0 L65,667 L820,667 L820,497 L320,497 L320,423 L734,423 L734,253 L320,253 L320,170 L851,170 L851,0 M328,742 L328,868 L560,868 L560,742"/> 
            <glyph glyph-name="ė" unicode="&#x117;" horiz-adv-x="786" d=" M786,189 L285,189 Q298,147 326,131 Q364,111 428,111 Q466,111 486.5,118.5 Q507,126 525,146 L786,146 Q773,100 753,73.5 Q733,47 695,27 Q603,-21 439,-21 Q238,-21 138,38 Q89,68 60.5,126 Q32,184 32,255 Q32,317 54.5,368 Q77,419 117,447 Q222,522 412,522 Q535,522 623,487 Q711,452 748,389 Q768,355 776.5,311.5 Q785,268 786,189 M287,316 L539,316 Q517,386 414,386 Q312,386 287,316 M294,565 L294,684 L524,684 L524,565"/> 
            <glyph glyph-name="Ę" unicode="&#x118;" horiz-adv-x="851" d=" M320,170 L851,170 L851,0 Q795,-5 768,-20 Q720,-46 720,-79 Q720,-98 740,-112.5 Q760,-127 785,-127 Q807,-127 850,-115 L850,-197 Q789,-214 742,-214 Q683,-214 647,-187 Q611,-160 611,-117 Q611,-84 633.5,-57.5 Q656,-31 711,0 L65,0 L65,667 L820,667 L820,497 L320,497 L320,423 L734,423 L734,253 L320,253"/> 
            <glyph glyph-name="ę" unicode="&#x119;" horiz-adv-x="786" d=" M525,146 L786,146 Q774,103 762,85 Q750,67 720,46 Q677,15 645,-21.5 Q613,-58 613,-76 Q613,-93 632,-107 Q651,-121 674,-121 Q692,-121 736,-109 L736,-187 Q676,-203 633,-203 Q577,-203 543,-177.5 Q509,-152 509,-111 Q509,-79 532,-54 Q542,-43 586,-10 Q516,-21 438,-21 Q236,-21 138,39 Q89,68 60.5,126 Q32,184 32,255 Q32,317 54.5,368 Q77,419 117,447 Q222,522 412,522 Q535,522 623,487 Q711,452 748,389 Q767,355 775.5,312 Q784,269 786,189 L285,189 Q298,147 326,131 Q364,111 428,111 Q466,111 486.5,118.5 Q507,126 525,146 M286,316 L539,316 Q517,386 414,386 Q312,386 286,316"/> 
            <glyph glyph-name="Ě" unicode="&#x11A;" horiz-adv-x="851" d=" M65,0 L65,667 L820,667 L820,497 L320,497 L320,423 L734,423 L734,253 L320,253 L320,170 L851,170 L851,0 M740,867 L569,740 L302,740 L147,867 L412,867 L455,824 L501,867"/> 
            <glyph glyph-name="ě" unicode="&#x11B;" horiz-adv-x="786" d=" M786,189 L285,189 Q298,147 326,131 Q364,111 428,111 Q466,111 486.5,118.5 Q507,126 525,146 L786,146 Q773,100 753,73.5 Q733,47 695,27 Q603,-21 439,-21 Q238,-21 138,38 Q89,68 60.5,126 Q32,184 32,255 Q32,317 54.5,368 Q77,419 117,447 Q222,522 412,522 Q535,522 623,487 Q711,452 748,389 Q768,355 776.5,311.5 Q785,268 786,189 M287,316 L539,316 Q517,386 414,386 Q312,386 287,316 M706,690 L535,565 L268,565 L113,690 L378,690 L421,648 L467,690"/> 
            <glyph glyph-name="Ğ" unicode="&#x11E;" horiz-adv-x="943" d=" M943,371 L943,2 L833,2 L799,74 Q754,30 698,11 Q604,-21 478,-21 Q267,-21 152,70.5 Q37,162 37,331 Q37,417 70,488.5 Q103,560 163,603 Q281,688 491,688 Q715,688 834,602 Q884,566 909,527 Q934,488 943,431 L640,431 Q608,518 494,518 Q411,518 364.5,470.5 Q318,423 318,339 Q318,247 370.5,198 Q423,149 521,149 Q646,149 674,226 L561,226 L561,371 M175,876 L322,876 Q346,852 378,844 Q427,833 497,833 Q568,833 621,845 Q650,854 672,876 L819,876 Q794,803 717,769.5 Q640,736 498,736 Q226,736 175,876"/> 
            <glyph glyph-name="ğ" unicode="&#x11F;" horiz-adv-x="789" d=" M789,501 L789,102 Q789,-8 752,-59 Q719,-106 631,-130 Q536,-155 394,-155 Q228,-155 149,-117 Q70,-79 53,7 L325,7 Q340,-12 358.5,-19 Q377,-26 413,-26 Q500,-26 533,10 Q555,33 560,92 Q488,44 366,44 Q191,44 101,110 Q69,134 51,177 Q33,220 33,270 Q33,384 116,449 Q199,514 344,514 Q487,514 560,447 L560,501 M426,352 Q362,352 325,328.5 Q288,305 288,264 Q288,222 324.5,198 Q361,174 425,174 Q486,174 523,199 Q560,224 560,264 Q560,304 523.5,328 Q487,352 426,352 M79,690 L226,690 Q270,660 400,660 Q532,660 576,690 L723,690 Q698,625 620.5,594.5 Q543,564 401,564 Q129,564 79,690"/> 
            <glyph glyph-name="Ģ" unicode="&#x122;" horiz-adv-x="943" d=" M943,371 L943,2 L833,2 L799,74 Q754,30 698,11 Q604,-21 478,-21 Q267,-21 152,70.5 Q37,162 37,331 Q37,417 70,488.5 Q103,560 163,603 Q281,688 491,688 Q715,688 834,602 Q884,566 909,527 Q934,488 943,431 L640,431 Q608,518 494,518 Q411,518 364.5,470.5 Q318,423 318,339 Q318,247 370.5,198 Q423,149 521,149 Q646,149 674,226 L561,226 L561,371 M306,-228 L384,-67 L656,-67 L497,-228"/> 
            <glyph glyph-name="ģ" unicode="&#x123;" horiz-adv-x="789" d=" M789,501 L789,102 Q789,-8 752,-59 Q719,-106 631,-130 Q536,-155 394,-155 Q228,-155 149,-117 Q70,-79 53,7 L325,7 Q340,-12 358.5,-19 Q377,-26 413,-26 Q500,-26 533,10 Q555,33 560,92 Q488,44 366,44 Q191,44 101,110 Q69,134 51,177 Q33,220 33,270 Q33,384 116,449 Q199,514 344,514 Q487,514 560,447 L560,501 M426,352 Q362,352 325,328.5 Q288,305 288,264 Q288,222 324.5,198 Q361,174 425,174 Q486,174 523,199 Q560,224 560,264 Q560,304 523.5,328 Q487,352 426,352 M350,690 L578,690 L515,564 L211,564"/> 
            <glyph glyph-name="Ī" unicode="&#x12A;" horiz-adv-x="391" d=" M67,0 L67,667 L322,667 L322,0 M-1,756 L-1,848 L391,848 L391,756"/> 
            <glyph glyph-name="ī" unicode="&#x12B;" horiz-adv-x="337" d=" M54,0 L54,501 L283,501 L283,0 M0,584 L0,673 L337,673 L337,584"/> 
            <glyph glyph-name="Į" unicode="&#x12E;" horiz-adv-x="334" d=" M322,667 L322,0 Q274,-5 239,-28 Q204,-51 204,-79 Q204,-98 224,-112.5 Q244,-127 269,-127 Q290,-127 334,-115 L334,-197 Q271,-214 226,-214 Q167,-214 131,-187 Q95,-160 95,-117 Q95,-68 148,-29 Q163,-18 195,0 L67,0 L67,667"/> 
            <glyph glyph-name="į" unicode="&#x12F;" horiz-adv-x="289" d=" M283,501 L283,0 Q242,-1 214,-16 Q192,-27 178.5,-44 Q165,-61 165,-75 Q165,-93 184,-107 Q203,-121 226,-121 Q242,-121 289,-109 L289,-187 Q228,-203 186,-203 Q130,-203 96,-177.5 Q62,-152 62,-111 Q62,-79 83.5,-54 Q105,-29 157,0 L54,0 L54,501 M54,548 L54,667 L283,667 L283,548"/> 
            <glyph glyph-name="İ" unicode="&#x130;" horiz-adv-x="322" d=" M67,0 L67,667 L322,667 L322,0 M79,742 L79,868 L311,868 L311,742"/> 
            <glyph glyph-name="ı" unicode="&#x131;" horiz-adv-x="283" d=" M54,0 L54,501 L283,501 L283,0"/> 
            <glyph glyph-name="Ķ" unicode="&#x136;" horiz-adv-x="944" d=" M65,0 L65,667 L320,667 L320,416 L580,667 L926,667 L649,429 L944,0 L621,0 L437,280 L320,169 L320,0 M274,-228 L352,-67 L624,-67 L465,-228"/> 
            <glyph glyph-name="ķ" unicode="&#x137;" horiz-adv-x="778" d=" M54,0 L54,667 L283,667 L283,346 L448,501 L760,501 L554,325 L778,0 L491,0 L370,193 L283,116 L283,0 M200,-220 L274,-67 L533,-67 L381,-220"/> 
            <glyph glyph-name="Ĺ" unicode="&#x139;" horiz-adv-x="797" d=" M65,0 L65,667 L320,667 L320,170 L797,170 L797,0 M102,741 L180,869 L485,869 L320,741"/> 
            <glyph glyph-name="ĺ" unicode="&#x13A;" horiz-adv-x="440" d=" M54,0 L54,667 L283,667 L283,0 M57,741 L135,869 L440,869 L275,741"/> 
            <glyph glyph-name="Ļ" unicode="&#x13B;" horiz-adv-x="797" d=" M65,0 L65,667 L320,667 L320,170 L797,170 L797,0 M215,-228 L293,-67 L565,-67 L406,-228"/> 
            <glyph glyph-name="ļ" unicode="&#x13C;" horiz-adv-x="319" d=" M54,0 L54,667 L283,667 L283,0 M-14,-220 L60,-67 L319,-67 L167,-220"/> 
            <glyph glyph-name="Ľ" unicode="&#x13D;" horiz-adv-x="797" d=" M65,0 L65,667 L320,667 L320,170 L797,170 L797,0 M435,426 L493,667 L712,667 L586,426"/> 
            <glyph glyph-name="ľ" unicode="&#x13E;" horiz-adv-x="594" d=" M54,0 L54,667 L283,667 L283,0 M337,426 L375,667 L594,667 L468,426"/> 
            <glyph glyph-name="Ł" unicode="&#x141;" horiz-adv-x="798" d=" M66,186 L-41,144 L-41,291 L66,333 L66,667 L321,667 L321,434 L593,541 L593,394 L321,287 L321,170 L798,170 L798,0 L66,0"/> 
            <glyph glyph-name="ł" unicode="&#x142;" horiz-adv-x="423" d=" M103,216 L13,170 L13,317 L103,362 L103,667 L332,667 L332,477 L423,523 L423,376 L332,331 L332,0 L103,0"/> 
            <glyph glyph-name="Ń" unicode="&#x143;" horiz-adv-x="891" d=" M65,0 L65,667 L353,667 L636,302 L636,667 L891,667 L891,0 L611,0 L320,362 L320,0 M286,741 L364,869 L669,869 L504,741"/> 
            <glyph glyph-name="ń" unicode="&#x144;" horiz-adv-x="753" d=" M54,0 L54,501 L283,501 L283,453 Q343,487 394,500.5 Q445,514 514,514 Q692,514 736,405 Q747,379 750,350 Q753,321 753,249 L753,0 L524,0 L524,207 Q524,285 507,316 Q485,354 415,354 Q331,354 300,297 Q283,269 283,207 L283,0 M448,564 L220,564 L283,690 L587,690"/> 
            <glyph glyph-name="Ņ" unicode="&#x145;" horiz-adv-x="891" d=" M65,0 L65,667 L353,667 L636,302 L636,667 L891,667 L891,0 L611,0 L320,362 L320,0 M286,-228 L364,-67 L636,-67 L477,-228"/> 
            <glyph glyph-name="ņ" unicode="&#x146;" horiz-adv-x="753" d=" M54,0 L54,501 L283,501 L283,453 Q343,487 394,500.5 Q445,514 514,514 Q692,514 736,405 Q747,379 750,350 Q753,321 753,249 L753,0 L524,0 L524,207 Q524,285 507,316 Q485,354 415,354 Q331,354 300,297 Q283,269 283,207 L283,0 M221,-220 L295,-67 L554,-67 L402,-220"/> 
            <glyph glyph-name="Ň" unicode="&#x147;" horiz-adv-x="891" d=" M65,0 L65,667 L353,667 L636,302 L636,667 L891,667 L891,0 L611,0 L320,362 L320,0 M774,867 L603,740 L336,740 L181,867 L446,867 L489,824 L535,867"/> 
            <glyph glyph-name="ň" unicode="&#x148;" horiz-adv-x="753" d=" M54,0 L54,501 L283,501 L283,453 Q343,487 394,500.5 Q445,514 514,514 Q692,514 736,405 Q747,379 750,350 Q753,321 753,249 L753,0 L524,0 L524,207 Q524,285 507,316 Q485,354 415,354 Q331,354 300,297 Q283,269 283,207 L283,0 M700,690 L529,565 L262,565 L107,690 L372,690 L415,648 L461,690"/> 
            <glyph glyph-name="Ō" unicode="&#x14C;" horiz-adv-x="945" d=" M491,688 Q615,688 697.5,666 Q780,644 842,594 Q945,512 945,333 Q945,152 834.5,65 Q724,-22 494,-22 Q369,-22 285.5,0 Q202,22 140,72 Q37,156 37,339 Q37,511 140,594 Q257,688 491,688 M491,518 Q407,518 362.5,471 Q318,424 318,336 Q318,148 492,148 Q576,148 620,195 Q664,242 664,333 Q664,424 620,471 Q576,518 491,518 M210,756 L210,848 L796,848 L796,756"/> 
            <glyph glyph-name="ō" unicode="&#x14D;" horiz-adv-x="813" d=" M423,523 Q565,523 668,484 Q738,456 775.5,396 Q813,336 813,251 Q813,166 775.5,106 Q738,46 668,19 Q568,-21 424,-21 Q279,-21 177,19 Q32,75 32,256 Q32,337 70.5,397 Q109,457 177,484 Q280,523 423,523 M483,378 Q363,378 325,343 Q287,308 287,253 Q287,195 324,159.5 Q361,124 423,124 Q483,124 520.5,159.5 Q558,195 558,251 Q558,307 483,378 M141,584 L141,673 L703,673 L703,584"/> 
            <glyph glyph-name="Ő" unicode="&#x150;" horiz-adv-x="945" d=" M491,688 Q615,688 697.5,666 Q780,644 842,594 Q945,512 945,333 Q945,152 834.5,65 Q724,-22 494,-22 Q369,-22 285.5,0 Q202,22 140,72 Q37,156 37,339 Q37,511 140,594 Q257,688 491,688 M491,518 Q407,518 362.5,471 Q318,424 318,336 Q318,148 492,148 Q576,148 620,195 Q664,242 664,333 Q664,424 620,471 Q576,518 491,518 M229,741 L307,869 L552,869 L420,741 M536,741 L613,869 L859,869 L727,741"/> 
            <glyph glyph-name="ő" unicode="&#x151;" horiz-adv-x="813" d=" M423,523 Q565,523 668,484 Q738,456 775.5,396 Q813,336 813,251 Q813,166 775.5,106 Q738,46 668,19 Q568,-21 424,-21 Q279,-21 177,19 Q32,75 32,256 Q32,337 70.5,397 Q109,457 177,484 Q280,523 423,523 M483,378 Q363,378 325,343 Q287,308 287,253 Q287,195 324,159.5 Q361,124 423,124 Q483,124 520.5,159.5 Q558,195 558,251 Q558,307 483,378 M376,564 L182,564 L245,690 L495,690 M663,564 L469,564 L532,690 L782,690"/> 
            <glyph glyph-name="Œ" unicode="&#x152;" horiz-adv-x="1448" d=" M1448,170 L1448,0 L901,0 Q823,0 706,-11 Q586,-21 496,-21 Q284,-21 176,45 Q109,85 73,161.5 Q37,238 37,339 Q37,532 169,615 Q232,655 307.5,672 Q383,689 495,689 Q599,689 746,674 Q815,667 901,667 L1415,667 L1415,497 L923,497 L923,423 L1336,423 L1336,253 L923,253 L923,170 M668,518 Q318,518 318,335 Q318,149 494,149 Q668,149 668,332"/> 
            <glyph glyph-name="œ" unicode="&#x153;" horiz-adv-x="1287" d=" M1014,141 L1285,141 Q1260,69 1199,35 Q1098,-22 927,-22 Q765,-22 675,32 Q624,4 587,-4 Q507,-22 416,-22 Q239,-22 135,38 Q87,67 59.5,123.5 Q32,180 32,250 Q32,327 63,385 Q94,443 151,472 Q251,523 426,523 Q578,523 675,477 Q782,523 924,523 Q1147,523 1234,408 Q1260,372 1271.5,326.5 Q1283,281 1287,193 L786,193 Q801,151 834,132 Q867,113 925,113 Q985,113 1014,141 M419,379 Q358,379 323,345 Q288,311 288,251 Q288,189 322.5,155.5 Q357,122 421,122 Q483,122 517.5,155.5 Q552,189 552,250 Q552,312 517.5,345.5 Q483,379 419,379 M790,320 L1026,320 Q1009,357 983,372 Q957,387 908,387 Q820,387 790,320"/> 
            <glyph glyph-name="Ŕ" unicode="&#x154;" horiz-adv-x="863" d=" M65,0 L65,667 L559,667 Q655,667 693.5,662.5 Q732,658 766,644 Q809,626 834,581 Q859,536 859,475 Q859,391 821,348 Q794,319 728,304 Q781,289 802.5,270 Q824,251 833,213 Q842,175 845,84 Q847,45 849.5,31.5 Q852,18 863,0 L596,0 Q591,33 588,88 Q586,146 582.5,172 Q579,198 564.5,215.5 Q550,233 530,236 Q510,239 465,239 L320,239 L320,0 M320,380 L489,380 Q544,380 560,391 Q586,409 586,447 Q586,483 565.5,497 Q545,511 491,511 L320,511 M254,741 L332,869 L637,869 L472,741"/> 
            <glyph glyph-name="ŕ" unicode="&#x155;" horiz-adv-x="663" d=" M54,0 L54,501 L283,501 L283,453 Q368,514 470,514 Q616,514 649,410 Q662,371 663,268 L433,268 Q431,312 415,331 Q399,350 363,350 Q321,350 302,322.5 Q283,295 283,234 L283,0 M386,564 L158,564 L221,690 L525,690"/> 
            <glyph glyph-name="Ŗ" unicode="&#x156;" horiz-adv-x="863" d=" M65,0 L65,667 L559,667 Q655,667 693.5,662.5 Q732,658 766,644 Q809,626 834,581 Q859,536 859,475 Q859,391 821,348 Q794,319 728,304 Q781,289 802.5,270 Q824,251 833,213 Q842,175 845,84 Q847,45 849.5,31.5 Q852,18 863,0 L596,0 Q591,33 588,88 Q586,146 582.5,172 Q579,198 564.5,215.5 Q550,233 530,236 Q510,239 465,239 L320,239 L320,0 M320,380 L489,380 Q544,380 560,391 Q586,409 586,447 Q586,483 565.5,497 Q545,511 491,511 L320,511 M254,-228 L332,-67 L604,-67 L445,-228"/> 
            <glyph glyph-name="ŗ" unicode="&#x157;" horiz-adv-x="663" d=" M54,0 L54,501 L283,501 L283,453 Q368,514 470,514 Q616,514 649,410 Q662,371 663,268 L433,268 Q431,312 415,331 Q399,350 363,350 Q321,350 302,322.5 Q283,295 283,234 L283,0 M-15,-220 L59,-67 L318,-67 L166,-220"/> 
            <glyph glyph-name="Ř" unicode="&#x158;" horiz-adv-x="863" d=" M65,0 L65,667 L559,667 Q655,667 693.5,662.5 Q732,658 766,644 Q809,626 834,581 Q859,536 859,475 Q859,391 821,348 Q794,319 728,304 Q781,289 802.5,270 Q824,251 833,213 Q842,175 845,84 Q847,45 849.5,31.5 Q852,18 863,0 L596,0 Q591,33 588,88 Q586,146 582.5,172 Q579,198 564.5,215.5 Q550,233 530,236 Q510,239 465,239 L320,239 L320,0 M320,380 L489,380 Q544,380 560,391 Q586,409 586,447 Q586,483 565.5,497 Q545,511 491,511 L320,511 M742,867 L571,740 L304,740 L149,867 L414,867 L457,824 L503,867"/> 
            <glyph glyph-name="ř" unicode="&#x159;" horiz-adv-x="663" d=" M54,0 L54,501 L283,501 L283,453 Q368,514 470,514 Q616,514 649,410 Q662,371 663,268 L433,268 Q431,312 415,331 Q399,350 363,350 Q321,350 302,322.5 Q283,295 283,234 L283,0 M637,690 L466,565 L199,565 L44,690 L309,690 L352,648 L398,690"/> 
            <glyph glyph-name="Ś" unicode="&#x15A;" horiz-adv-x="899" d=" M29,200 L383,200 Q400,172 427.5,160.5 Q455,149 502,149 Q593,149 593,192 Q593,218 562,227 Q537,234 373,250 Q244,264 163,291 Q35,333 35,458 Q35,571 144,629.5 Q253,688 462,688 Q675,688 777,622 Q818,596 840,563 Q862,530 878,471 L545,471 Q522,532 425,532 Q385,532 362,520 Q339,508 339,488 Q339,475 345,468 Q351,461 377.5,454 Q404,447 444,441.5 Q484,436 567,428 Q706,414 776,388 Q899,341 899,214 Q899,95 790,37 Q681,-21 457,-21 Q240,-21 139,35 Q85,64 60.5,101 Q36,138 29,200 M326,741 L404,869 L709,869 L544,741"/> 
            <glyph glyph-name="ś" unicode="&#x15B;" horiz-adv-x="744" d=" M21,164 L298,150 Q311,130 332,122 Q353,114 392,114 Q460,114 460,145 Q460,162 436,166 Q397,173 237,194 Q123,210 74.5,246 Q26,282 26,350 Q26,439 105.5,481 Q185,523 352,523 Q564,523 650,468 Q684,446 700.5,421.5 Q717,397 727,352 L433,362 Q413,385 351,385 Q291,385 291,359 Q291,345 307,339.5 Q323,334 368,332 Q577,320 660.5,280.5 Q744,241 744,154 Q744,-21 399,-21 Q181,-21 96,35 Q59,60 43,87.5 Q27,115 21,164 M467,564 L239,564 L302,690 L606,690"/> 
            <glyph glyph-name="Ş" unicode="&#x15E;" horiz-adv-x="899" d=" M491,-21 L455,-70 Q492,-63 518,-63 Q571,-63 604,-86 Q637,-109 637,-147 Q637,-194 589,-223 Q541,-252 463,-252 Q384,-252 291,-220 L319,-168 Q398,-192 444,-192 Q470,-192 486,-181 Q502,-170 502,-151 Q502,-112 442,-112 Q428,-112 394,-122 L360,-97 L416,-21 Q225,-16 130.5,38 Q36,92 29,200 L383,200 Q400,172 427.5,160.5 Q455,149 502,149 Q593,149 593,192 Q593,218 562,227 Q537,234 373,250 Q244,264 163,291 Q35,333 35,458 Q35,571 144,629.5 Q253,688 462,688 Q675,688 777,622 Q818,596 840,563 Q862,530 878,471 L545,471 Q522,532 425,532 Q385,532 362,520 Q339,508 339,488 Q339,475 344.5,468 Q350,461 376.5,454 Q403,447 443.5,441.5 Q484,436 567,428 Q655,419 694,411.5 Q733,404 776,387 Q899,341 899,214 Q899,98 800,41 Q701,-16 491,-21"/> 
            <glyph glyph-name="ş" unicode="&#x15F;" horiz-adv-x="744" d=" M405,-21 L376,-65 Q400,-59 429,-59 Q474,-59 501.5,-80 Q529,-101 529,-135 Q529,-176 489.5,-203.5 Q450,-231 389,-231 Q312,-231 237,-204 L261,-156 Q327,-177 369,-177 Q417,-177 417,-141 Q417,-105 370,-105 Q351,-105 325,-113 L296,-89 L343,-20 Q184,-16 106,29 Q28,74 21,164 L298,150 Q311,130 332,122 Q353,114 392,114 Q460,114 460,145 Q460,162 436,166 Q397,173 237,194 Q123,210 74.5,246 Q26,282 26,350 Q26,439 105.5,481 Q185,523 352,523 Q564,523 650,468 Q684,446 700.5,421.5 Q717,397 727,352 L433,362 Q413,385 351,385 Q291,385 291,359 Q291,345 307,339.5 Q323,334 368,332 Q578,319 661,280 Q744,241 744,154 Q744,37 586,-4 Q518,-21 405,-21"/> 
            <glyph glyph-name="Š" unicode="&#x160;" horiz-adv-x="899" d=" M29,200 L383,200 Q400,172 427.5,160.5 Q455,149 502,149 Q593,149 593,192 Q593,218 562,227 Q537,234 373,250 Q244,264 163,291 Q35,333 35,458 Q35,571 144,629.5 Q253,688 462,688 Q675,688 777,622 Q818,596 840,563 Q862,530 878,471 L545,471 Q522,532 425,532 Q385,532 362,520 Q339,508 339,488 Q339,475 345,468 Q351,461 377.5,454 Q404,447 444,441.5 Q484,436 567,428 Q706,414 776,388 Q899,341 899,214 Q899,95 790,37 Q681,-21 457,-21 Q240,-21 139,35 Q85,64 60.5,101 Q36,138 29,200 M760,867 L589,740 L322,740 L167,867 L432,867 L475,824 L521,867"/> 
            <glyph glyph-name="š" unicode="&#x161;" horiz-adv-x="744" d=" M21,164 L298,150 Q311,130 332,122 Q353,114 392,114 Q460,114 460,145 Q460,162 436,166 Q397,173 237,194 Q123,210 74.5,246 Q26,282 26,350 Q26,439 105.5,481 Q185,523 352,523 Q564,523 650,468 Q684,446 700.5,421.5 Q717,397 727,352 L433,362 Q413,385 351,385 Q291,385 291,359 Q291,345 307,339.5 Q323,334 368,332 Q577,320 660.5,280.5 Q744,241 744,154 Q744,-21 399,-21 Q181,-21 96,35 Q59,60 43,87.5 Q27,115 21,164 M679,690 L508,565 L241,565 L86,690 L351,690 L394,648 L440,690"/> 
            <glyph glyph-name="Ţ" unicode="&#x162;" horiz-adv-x="776" d=" M264,0 L264,497 L10,497 L10,667 L776,667 L776,497 L519,497 L519,0 M181,-228 L259,-67 L531,-67 L372,-228"/> 
            <glyph glyph-name="ţ" unicode="&#x163;" horiz-adv-x="390" d=" M390,129 L390,0 L253,0 Q181,0 145.5,12 Q110,24 94,54 Q85,72 83,90 Q81,108 81,180 L81,366 L0,366 L0,501 L81,501 L81,667 L310,667 L310,501 L390,501 L390,366 L310,366 L310,182 Q310,148 321.5,138.5 Q333,129 374,129 M39,-220 L113,-67 L372,-67 L220,-220"/> 
            <glyph glyph-name="Ť" unicode="&#x164;" horiz-adv-x="776" d=" M264,0 L264,497 L10,497 L10,667 L776,667 L776,497 L519,497 L519,0 M689,867 L518,740 L251,740 L96,867 L361,867 L404,824 L450,867"/> 
            <glyph glyph-name="ť" unicode="&#x165;" horiz-adv-x="634" d=" M390,129 L390,0 L253,0 Q181,0 145.5,12 Q110,24 94,54 Q85,72 83,90 Q81,108 81,180 L81,366 L0,366 L0,501 L81,501 L81,667 L310,667 L310,501 L390,501 L390,366 L310,366 L310,182 Q310,148 321.5,138.5 Q333,129 374,129 M377,552 L415,793 L634,793 L508,552"/> 
            <glyph glyph-name="Ū" unicode="&#x16A;" horiz-adv-x="860" d=" M59,667 L314,667 L314,325 Q314,231 348,190 Q382,149 460,149 Q538,149 571.5,189.5 Q605,230 605,325 L605,667 L860,667 L860,314 Q860,212 849,166 Q838,120 803,80 Q717,-21 460,-21 Q179,-21 99,103 Q75,139 67,180.5 Q59,222 59,307 M179,756 L179,848 L765,848 L765,756"/> 
            <glyph glyph-name="ū" unicode="&#x16B;" horiz-adv-x="753" d=" M753,501 L753,0 L524,0 L524,48 Q464,14 412.5,0.5 Q361,-13 292,-13 Q118,-13 72,92 Q61,117 57.5,148 Q54,179 54,251 L54,501 L283,501 L283,294 Q283,216 300,185 Q322,147 392,147 Q476,147 507,203 Q524,233 524,294 L524,501 M122,584 L122,673 L684,673 L684,584"/> 
            <glyph glyph-name="Ů" unicode="&#x16E;" horiz-adv-x="860" d=" M59,667 L314,667 L314,325 Q314,231 348,190 Q382,149 460,149 Q538,149 571.5,189.5 Q605,230 605,325 L605,667 L860,667 L860,314 Q860,212 849,166 Q838,120 803,80 Q717,-21 460,-21 Q179,-21 99,103 Q75,139 67,180.5 Q59,222 59,307 M459,902 Q514,902 547.5,877 Q581,852 581,812 Q581,770 548,745 Q515,720 459,720 Q403,720 370,745.5 Q337,771 337,814 Q337,853 371,877.5 Q405,902 459,902 M473,848 Q445,848 434.5,837.5 Q424,827 424,813 Q424,798 434.5,787.5 Q445,777 459,777 Q473,777 483.5,787.5 Q494,798 494,812 Q494,827 473,848"/> 
            <glyph glyph-name="ů" unicode="&#x16F;" horiz-adv-x="753" d=" M753,501 L753,0 L524,0 L524,48 Q464,14 412.5,0.5 Q361,-13 292,-13 Q118,-13 72,92 Q61,117 57.5,148 Q54,179 54,251 L54,501 L283,501 L283,294 Q283,216 300,185 Q322,147 392,147 Q476,147 507,203 Q524,233 524,294 L524,501 M404,748 Q459,748 492.5,723 Q526,698 526,658 Q526,616 493,591 Q460,566 404,566 Q348,566 315,591.5 Q282,617 282,660 Q282,699 316,723.5 Q350,748 404,748 M418,694 Q390,694 379.5,683.5 Q369,673 369,659 Q369,644 379.5,633.5 Q390,623 404,623 Q418,623 428.5,633.5 Q439,644 439,658 Q439,673 418,694"/> 
            <glyph glyph-name="Ű" unicode="&#x170;" horiz-adv-x="860" d=" M59,667 L314,667 L314,325 Q314,231 348,190 Q382,149 460,149 Q538,149 571.5,189.5 Q605,230 605,325 L605,667 L860,667 L860,314 Q860,212 849,166 Q838,120 803,80 Q717,-21 460,-21 Q179,-21 99,103 Q75,139 67,180.5 Q59,222 59,307 M211,741 L289,869 L534,869 L402,741 M518,741 L595,869 L841,869 L709,741"/> 
            <glyph glyph-name="ű" unicode="&#x171;" horiz-adv-x="757" d=" M753,501 L753,0 L524,0 L524,48 Q464,14 412.5,0.5 Q361,-13 292,-13 Q118,-13 72,92 Q61,117 57.5,148 Q54,179 54,251 L54,501 L283,501 L283,294 Q283,216 300,185 Q322,147 392,147 Q476,147 507,203 Q524,233 524,294 L524,501 M351,564 L157,564 L220,690 L470,690 M638,564 L444,564 L507,690 L757,690"/> 
            <glyph glyph-name="Ų" unicode="&#x172;" horiz-adv-x="860" d=" M605,667 L860,667 L860,314 Q860,192 842.5,144.5 Q825,97 759,41 Q663,-40 663,-80 Q663,-99 683,-113.5 Q703,-128 728,-128 Q746,-128 792,-115 L792,-197 Q731,-214 685,-214 Q626,-214 590,-187 Q554,-160 554,-117 Q554,-93 565,-75 Q576,-57 607,-27 Q610,-25 627,-8 Q534,-22 461,-22 Q316,-22 228,8 Q140,38 98,103 Q75,139 67,180.5 Q59,222 59,307 L59,667 L314,667 L314,325 Q314,230 348,189 Q382,148 460,148 Q538,148 571.5,189 Q605,230 605,325"/> 
            <glyph glyph-name="ų" unicode="&#x173;" horiz-adv-x="757" d=" M753,501 L753,0 Q706,-1 671,-22 Q633,-47 633,-75 Q633,-93 652,-107 Q671,-121 694,-121 Q713,-121 757,-109 L757,-187 Q697,-203 654,-203 Q599,-203 564.5,-177.5 Q530,-152 530,-111 Q530,-80 551.5,-54.5 Q573,-29 625,0 L524,0 L524,48 Q464,14 412.5,0.5 Q361,-13 292,-13 Q118,-13 72,92 Q61,117 57.5,148 Q54,179 54,251 L54,501 L283,501 L283,294 Q283,216 300,185 Q322,147 392,147 Q476,147 507,203 Q524,233 524,294 L524,501"/> 
            <glyph glyph-name="Ÿ" unicode="&#x178;" horiz-adv-x="866" d=" M295,0 L295,168 L-13,667 L287,667 L428,420 L571,667 L866,667 L551,168 L551,0 M472,742 L472,868 L704,868 L704,742 M148,742 L148,868 L380,868 L380,742"/> 
            <glyph glyph-name="Ź" unicode="&#x179;" horiz-adv-x="835" d=" M27,0 L27,148 L436,497 L47,497 L47,667 L835,667 L835,514 L434,170 L827,170 L827,0 M292,741 L370,869 L675,869 L510,741"/> 
            <glyph glyph-name="ź" unicode="&#x17A;" horiz-adv-x="687" d=" M20,0 L20,127 L316,348 L49,348 L49,501 L687,501 L687,376 L364,153 L680,153 L680,0 M437,564 L209,564 L272,690 L576,690"/> 
            <glyph glyph-name="Ż" unicode="&#x17B;" horiz-adv-x="835" d=" M27,0 L27,148 L436,497 L47,497 L47,667 L835,667 L835,514 L434,170 L827,170 L827,0 M314,742 L314,868 L546,868 L546,742"/> 
            <glyph glyph-name="ż" unicode="&#x17C;" horiz-adv-x="687" d=" M20,0 L20,127 L316,348 L49,348 L49,501 L687,501 L687,376 L364,153 L680,153 L680,0 M244,565 L244,684 L474,684 L474,565"/> 
            <glyph glyph-name="Ž" unicode="&#x17D;" horiz-adv-x="835" d=" M27,0 L27,148 L436,497 L47,497 L47,667 L835,667 L835,514 L434,170 L827,170 L827,0 M726,867 L555,740 L288,740 L133,867 L398,867 L441,824 L487,867"/> 
            <glyph glyph-name="ž" unicode="&#x17E;" horiz-adv-x="687" d=" M20,0 L20,127 L316,348 L49,348 L49,501 L687,501 L687,376 L364,153 L680,153 L680,0 M655,690 L484,565 L217,565 L62,690 L327,690 L370,648 L416,690"/> 
            <glyph glyph-name="ƒ" unicode="&#x192;" horiz-adv-x="623" d=" M200,352 L131,352 L150,457 L219,457 L225,490 Q231,525 252.5,563 Q274,601 301,625 Q370,685 529,685 Q582,685 623,678 L600,548 Q589,549 573,549 Q530,549 507,528 Q496,517 490,484 L485,457 L584,457 L565,352 L467,352 L412,43 Q397,-43 337,-94 Q268,-152 115,-152 Q64,-152 14,-145 L37,-15 L64,-16 Q136,-16 146,43"/> 
            <glyph glyph-name="ˆ" unicode="&#x2C6;" horiz-adv-x="630" d=" M37,565 L209,690 L475,690 L630,565 L366,565 L322,607 L276,565"/> 
            <glyph glyph-name="ˇ" unicode="&#x2C7;" horiz-adv-x="630" d=" M630,690 L459,565 L192,565 L37,690 L302,690 L345,648 L391,690"/> 
            <glyph glyph-name="ˉ" unicode="&#x2C9;" horiz-adv-x="614" d=" M52,584 L52,673 L614,673 L614,584"/> 
            <glyph glyph-name="˘" unicode="&#x2D8;" horiz-adv-x="655" d=" M11,690 L158,690 Q202,660 332,660 Q464,660 508,690 L655,690 Q630,625 552.5,594.5 Q475,564 333,564 Q60,564 11,690"/> 
            <glyph glyph-name="˙" unicode="&#x2D9;" horiz-adv-x="365" d=" M135,565 L135,684 L365,684 L365,565"/> 
            <glyph glyph-name="˚" unicode="&#x2DA;" horiz-adv-x="372" d=" M250,748 Q305,748 338.5,723 Q372,698 372,658 Q372,616 339,591 Q306,566 250,566 Q194,566 161,591.5 Q128,617 128,660 Q128,699 162,723.5 Q196,748 250,748 M264,694 Q236,694 225.5,683.5 Q215,673 215,659 Q215,644 225.5,633.5 Q236,623 250,623 Q264,623 274.5,633.5 Q285,644 285,658 Q285,673 264,694"/> 
            <glyph glyph-name="˛" unicode="&#x2DB;" horiz-adv-x="577" d=" M445,0 L545,0 Q454,-35 454,-75 Q454,-93 472.5,-107 Q491,-121 515,-121 Q533,-121 577,-109 L577,-187 Q517,-203 474,-203 Q419,-203 384.5,-177.5 Q350,-152 350,-111 Q350,-80 371.5,-54.5 Q393,-29 445,0"/> 
            <glyph glyph-name="˜" unicode="&#x2DC;" horiz-adv-x="646" d=" M141,562 L20,562 Q67,695 234,695 Q270,695 374,680 Q440,672 474,672 Q510,672 534,692 L646,692 Q628,629 582,595 Q536,560 441,560 Q397,560 228,576 Q204,579 185,579 Q158,579 141,562"/> 
            <glyph glyph-name="˝" unicode="&#x2DD;" horiz-adv-x="660" d=" M254,564 L60,564 L123,690 L373,690 M541,564 L347,564 L410,690 L660,690"/> 
            <glyph glyph-name="Δ" unicode="&#x394;" horiz-adv-x="663" d=" M10,0 L228,667 L443,667 L663,0 M272,179 L396,179 L337,450"/> 
            <glyph glyph-name="μ" unicode="&#x3BC;" horiz-adv-x="821" d=" M821,501 L821,0 L592,0 L592,48 Q505,-2 445,-2 Q403,-2 351,45 L351,-145 L122,-145 L122,501 L351,501 L351,294 Q351,216 368,186 Q390,148 460,148 Q544,148 575,204 Q592,234 592,294 L592,501"/> 
            <glyph glyph-name="–" unicode="&#x2013;" horiz-adv-x="750" d=" M54,156 L54,359 L750,359 L750,156"/> 
            <glyph glyph-name="—" unicode="&#x2014;" horiz-adv-x="1159" d=" M0,156 L0,359 L1159,359 L1159,156"/> 
            <glyph glyph-name="‘" unicode="&#x2018;" horiz-adv-x="241" d=" M241,574 L241,407 L54,407 L54,522 Q54,591 89,623 Q124,655 225,680 L241,621 Q214,614 202,604 Q190,594 186,574"/> 
            <glyph glyph-name="’" unicode="&#x2019;" horiz-adv-x="261" d=" M65,493 L65,667 L261,667 L261,517 Q261,473 245.5,447 Q230,421 190,398 Q152,377 82,364 L65,429 Q103,436 120.5,450.5 Q138,465 140,493"/> 
            <glyph glyph-name="‚" unicode="&#x201A;" horiz-adv-x="261" d=" M65,0 L65,174 L261,174 L261,24 Q261,-20 245.5,-46.5 Q230,-73 190,-95 Q152,-116 82,-129 L65,-64 Q103,-57 120.5,-42.5 Q138,-28 140,0"/> 
            <glyph glyph-name="“" unicode="&#x201C;" horiz-adv-x="483" d=" M483,574 L483,407 L296,407 L296,522 Q296,591 331,623 Q366,655 467,680 L483,621 Q456,614 444,604 Q432,594 428,574 M241,574 L241,407 L54,407 L54,522 Q54,591 89,623 Q124,655 225,680 L241,621 Q214,614 202,604 Q190,594 186,574"/> 
            <glyph glyph-name="”" unicode="&#x201D;" horiz-adv-x="483" d=" M54,500 L54,667 L241,667 L241,552 Q241,483 206,451 Q171,419 70,394 L54,453 Q81,460 93,470.5 Q105,481 109,500 M296,500 L296,667 L483,667 L483,552 Q483,483 448,451 Q413,419 312,394 L296,453 Q323,460 335,470.5 Q347,481 351,500"/> 
            <glyph glyph-name="„" unicode="&#x201E;" horiz-adv-x="483" d=" M54,0 L54,167 L241,167 L241,52 Q241,-17 206,-49 Q171,-81 70,-106 L54,-47 Q81,-40 93,-29.5 Q105,-19 109,0 M296,0 L296,167 L483,167 L483,52 Q483,-17 448,-49 Q413,-81 312,-106 L296,-47 Q323,-40 335,-29.5 Q347,-19 351,0"/> 
            <glyph glyph-name="†" unicode="&#x2020;" horiz-adv-x="583" d=" M217,-97 L217,317 L65,317 L65,507 L217,507 L217,667 L431,667 L431,507 L583,507 L583,317 L431,317 L431,-97"/> 
            <glyph glyph-name="‡" unicode="&#x2021;" horiz-adv-x="583" d=" M217,337 L65,337 L65,507 L217,507 L217,667 L431,667 L431,507 L583,507 L583,337 L431,337 L431,233 L583,233 L583,63 L431,63 L431,-97 L217,-97 L217,63 L65,63 L65,233 L217,233"/> 
            <glyph glyph-name="•" unicode="&#x2022;" horiz-adv-x="473" d=" M336,477 Q392,477 432.5,436 Q473,395 473,338 Q473,281 432.5,240.5 Q392,200 335,200 Q277,200 236.5,240.5 Q196,281 196,338 Q196,396 236.5,436.5 Q277,477 336,477"/> 
            <glyph glyph-name="…" unicode="&#x2026;" horiz-adv-x="922" d=" M54,0 L54,209 L271,209 L271,0 M379,0 L379,209 L596,209 L596,0 M705,0 L705,209 L922,209 L922,0"/> 
            <glyph glyph-name="‰" unicode="&#x2030;" horiz-adv-x="1622" d=" M257,676 Q361,676 419,629.5 Q477,583 477,501 Q477,418 419,371.5 Q361,325 258,325 Q153,325 95,371.5 Q37,418 37,503 Q37,583 96,629.5 Q155,676 257,676 M295,592 Q219,592 197.5,568 Q176,544 176,502 Q176,458 197.5,433.5 Q219,409 257,409 Q295,409 316.5,433.5 Q338,458 338,501 Q338,544 295,592 M415,0 L648,667 L724,667 L496,0 M882,342 Q986,342 1044,295.5 Q1102,249 1102,167 Q1102,84 1044,37.5 Q986,-9 883,-9 Q778,-9 720,37.5 Q662,84 662,169 Q662,249 721,295.5 Q780,342 882,342 M920,258 Q844,258 822.5,234 Q801,210 801,168 Q801,124 822.5,99.5 Q844,75 882,75 Q920,75 941.5,99.5 Q963,124 963,167 Q963,210 920,258 M1402,342 Q1506,342 1564,295.5 Q1622,249 1622,167 Q1622,84 1564,37.5 Q1506,-9 1403,-9 Q1298,-9 1240,37.5 Q1182,84 1182,169 Q1182,249 1241,295.5 Q1300,342 1402,342 M1440,258 Q1364,258 1342.5,234 Q1321,210 1321,168 Q1321,124 1342.5,99.5 Q1364,75 1402,75 Q1440,75 1461.5,99.5 Q1483,124 1483,167 Q1483,210 1440,258"/> 
            <glyph glyph-name="‹" unicode="&#x2039;" horiz-adv-x="288" d=" M288,452 L190,256 L288,61 L136,61 L36,256 L136,452"/> 
            <glyph glyph-name="›" unicode="&#x203A;" horiz-adv-x="295" d=" M43,61 L141,257 L43,452 L195,452 L295,257 L195,61"/> 
            <glyph glyph-name="⁄" unicode="&#x2044;" horiz-adv-x="212" d=" M-97,0 L135,667 L212,667 L-17,0"/> 
            <glyph glyph-name="™" unicode="&#x2122;" horiz-adv-x="1100" d=" M153,287 L153,570 L6,570 L6,667 L450,667 L450,570 L301,570 L301,287 M494,287 L494,667 L737,667 L799,493 L859,667 L1100,667 L1100,287 L952,287 L952,549 L859,287 L737,287 L642,549 L642,287"/> 
            <glyph glyph-name="∂" unicode="&#x2202;" horiz-adv-x="494" d=" M37,501 L60,659 Q263,641 374,552 Q494,454 494,283 Q494,144 426.5,68 Q359,-8 237,-8 Q137,-8 76,52 Q42,84 23,132.5 Q4,181 4,232 Q4,317 63,373.5 Q122,430 211,430 Q275,430 300,412 Q289,438 272.5,449.5 Q256,461 211,475 Q146,497 37,501 M272,278 Q222,278 205,260 Q188,242 188,216 Q188,191 205.5,173 Q223,155 248,155 Q272,155 289.5,173 Q307,191 307,216 Q307,242 272,278"/> 
            <glyph glyph-name="∆" unicode="&#x2206;" horiz-adv-x="663" d=" M10,0 L228,667 L443,667 L663,0 M272,179 L396,179 L337,450"/> 
            <glyph glyph-name="∑" unicode="&#x2211;" horiz-adv-x="652" d=" M643,750 L643,471 L457,471 L434,560 L265,560 L501,262 L267,-60 L443,-60 L456,37 L652,37 L652,-250 L33,-250 L33,-32 L256,262 L33,530 L33,750"/> 
            <glyph glyph-name="−" unicode="&#x2212;" horiz-adv-x="728" d=" M215,264 L215,397 L728,397 L728,264"/> 
            <glyph glyph-name="∕" unicode="&#x2215;" horiz-adv-x="212" d=" M-97,0 L135,667 L212,667 L-17,0"/> 
            <glyph glyph-name="≠" unicode="&#x2260;" horiz-adv-x="466" d=" M246,514 L321,650 L453,574 L416,514 L466,514 L466,332 L343,332 L308,275 L466,275 L466,93 L242,93 L182,-11 L51,66 L72,93 L33,93 L33,275 L137,275 L173,332 L34,332 L34,514"/> 
            <glyph glyph-name="≤" unicode="&#x2264;" horiz-adv-x="466" d=" M466,692 L466,488 L271,448 L465,409 L466,206 L33,358 L33,540 M466,181 L466,-10 L33,-10 L33,181"/> 
            <glyph glyph-name="≥" unicode="&#x2265;" horiz-adv-x="466" d=" M33,206 L34,409 L228,448 L33,488 L33,692 L466,540 L466,358 M33,-10 L33,181 L466,181 L466,-10"/> 
            <glyph glyph-name="◊" unicode="&#x25CA;" horiz-adv-x="593" d=" M334,693 L593,333 L334,-26 L74,333 M334,604 L137,333 L334,63 L531,333"/> 
            <glyph glyph-name="" unicode="&#xE000;" horiz-adv-x="271" d=" M54,156 L54,365 L271,365 L271,156"/> 
            <glyph glyph-name="ﬁ" unicode="&#xFB01;" horiz-adv-x="697" d=" M82,0 L82,366 L7,366 L7,501 L82,501 L82,548 Q82,627 120.5,657.5 Q159,688 259,688 Q298,688 401,682 L401,548 Q340,548 326.5,540.5 Q313,533 311,501 L401,501 L401,366 L311,366 L311,0 M468,0 L468,501 L697,501 L697,0 M468,548 L468,667 L697,667 L697,548"/> 
            <glyph glyph-name="ﬂ" unicode="&#xFB02;" horiz-adv-x="697" d=" M82,0 L82,366 L7,366 L7,501 L82,501 L82,548 Q82,627 120.5,657.5 Q159,688 259,688 Q298,688 401,682 L401,548 Q340,548 326.5,540.5 Q313,533 311,501 L401,501 L401,366 L311,366 L311,0 M468,0 L468,667 L697,667 L697,0"/> 
            <glyph glyph-name=" " unicode="&#x20;" horiz-adv-x="438" d=" M404,399 L296,399 L262,667 L438,667 M175,399 L67,399 L33,667 L209,667"/> 
            <glyph glyph-name="!" unicode="&#x21;" horiz-adv-x="882" d=" M659,180 L634,0 L500,0 L525,180 L352,180 L326,0 L192,0 L217,180 L52,180 L67,285 L232,285 L248,398 L83,398 L97,503 L263,503 L286,667 L420,667 L397,503 L570,503 L593,667 L728,667 L705,503 L882,503 L867,398 L690,398 L674,285 L851,285 L836,180 M531,398 L411,398 L395,285 L515,285"/> 
            <glyph glyph-name="&quot;" unicode="&#x22;" horiz-adv-x="881" d=" M63,210 L375,210 Q383,180 403.5,168 Q424,156 470,156 Q578,156 578,200 Q578,222 553,229 Q539,233 418,248 Q268,266 183,295 Q67,334 67,459 Q67,595 236,654 Q302,677 418,684 L418,786 L523,786 L523,684 Q653,678 723,653 Q846,603 857,469 L559,469 Q552,502 533,513.5 Q514,525 465,525 Q370,525 370,483 Q370,464 392,455 Q407,450 525,438 Q672,425 758,394 Q816,374 848.5,329 Q881,284 881,223 Q881,148 834.5,93 Q788,38 699,9 Q630,-13 523,-17 L523,-123 L418,-123 L418,-17 Q241,-9 158,44 Q75,97 63,210"/> 
            <glyph glyph-name="#" unicode="&#x23;" horiz-adv-x="1102" d=" M257,676 Q361,676 419,629.5 Q477,583 477,501 Q477,418 419,371.5 Q361,325 258,325 Q153,325 95,371.5 Q37,418 37,503 Q37,583 96,629.5 Q155,676 257,676 M295,592 Q219,592 197.5,568 Q176,544 176,502 Q176,458 197.5,433.5 Q219,409 257,409 Q295,409 316.5,433.5 Q338,458 338,501 Q338,544 295,592 M415,0 L648,667 L724,667 L496,0 M882,342 Q986,342 1044,295.5 Q1102,249 1102,167 Q1102,84 1044,37.5 Q986,-9 883,-9 Q778,-9 720,37.5 Q662,84 662,169 Q662,249 721,295.5 Q780,342 882,342 M920,258 Q844,258 822.5,234 Q801,210 801,168 Q801,124 822.5,99.5 Q844,75 882,75 Q920,75 941.5,99.5 Q963,124 963,167 Q963,210 920,258"/> 
            <glyph glyph-name="$" unicode="&#x24;" horiz-adv-x="921" d=" M831,373 L921,261 Q871,218 779,156 L921,0 L637,0 L597,46 Q464,-13 340,-13 Q202,-13 108,52 Q72,77 51,120.5 Q30,164 30,213 Q30,299 87.5,350.5 Q145,402 265,425 Q226,476 226,529 Q226,688 498,688 Q638,688 713.5,644.5 Q789,601 789,521 Q789,460 745,421 Q701,382 600,352 L683,261 Q726,290 760,315 Q795,343 831,373 M491,158 L357,309 Q313,299 294,280 Q275,261 275,228 Q275,188 309,160 Q343,132 393,132 Q433,132 491,158 M508,453 Q551,462 568.5,475.5 Q586,489 586,512 Q586,532 571,544.5 Q556,557 531,557 Q508,557 492,545 Q476,533 476,516 Q476,491 508,453"/> 
            <glyph glyph-name="%" unicode="&#x25;" horiz-adv-x="235" d=" M201,399 L67,399 L33,667 L235,667"/> 
            <glyph glyph-name="&amp;" unicode="&#x26;" horiz-adv-x="436" d=" M436,667 L436,514 Q383,509 356,499 Q329,489 308,467 Q255,413 255,285 Q255,148 317,95 Q352,65 436,57 L436,-96 Q364,-96 326.5,-91 Q289,-86 242,-69 Q137,-31 84,68 Q39,153 39,285 Q39,479 141,574 Q240,667 416,667"/> 
            <glyph glyph-name="'" unicode="&#x27;" horiz-adv-x="449" d=" M52,-96 L52,57 Q105,62 132.5,72 Q160,82 180,104 Q233,158 233,286 Q233,423 171,476 Q150,493 125,501.5 Q100,510 52,514 L52,667 L73,667 Q248,667 347,574 Q449,478 449,285 Q449,41 282,-50 Q197,-96 52,-96"/> 
            <glyph glyph-name="(" unicode="&#x28;" horiz-adv-x="445" d=" M156,444 L33,470 L72,588 L188,542 L174,667 L299,667 L291,542 L406,594 L445,475 L323,444 L408,351 L306,277 L240,383 L177,274 L76,347"/> 
            <glyph glyph-name=")" unicode="&#x29;" horiz-adv-x="728" d=" M405,87 L405,264 L215,264 L215,397 L405,397 L405,573 L538,573 L538,397 L728,397 L728,264 L538,264 L538,87"/> 
            <glyph glyph-name="*" unicode="&#x2A;" horiz-adv-x="271" d=" M54,0 L54,193 L271,193 L271,27 Q271,-23 253.5,-52 Q236,-81 192,-105 Q146,-131 73,-143 L54,-71 Q96,-64 115.5,-47.5 Q135,-31 137,0"/> 
            <glyph glyph-name="+" unicode="&#x2B;" horiz-adv-x="386" d=" M0,156 L0,359 L386,359 L386,156"/> 
            <glyph glyph-name="," unicode="&#x2C;" horiz-adv-x="271" d=" M54,0 L54,209 L271,209 L271,0"/> 
            <glyph glyph-name="-" unicode="&#x2D;" horiz-adv-x="424" d=" M-1,-97 L245,667 L424,667 L177,-97"/> 
            <glyph glyph-name="." unicode="&#x2E;" horiz-adv-x="911" d=" M471,685 Q687,685 812,578 Q911,493 911,333 Q911,174 812,89 Q686,-18 473,-18 Q254,-18 130,89 Q31,174 31,338 Q31,410 57,473.5 Q83,537 130,578 Q254,685 471,685 M471,516 Q395,516 351.5,468 Q308,420 308,336 Q308,248 351,199.5 Q394,151 471,151 Q548,151 591,199.5 Q634,248 634,333 Q634,419 591,467.5 Q548,516 471,516"/> 
            <glyph glyph-name="/" unicode="&#x2F;" horiz-adv-x="637" d=" M378,0 L378,440 Q316,414 265,406 L265,563 Q390,613 444,667 L637,667 L637,0"/> 
            <glyph glyph-name="0" unicode="&#x30;" horiz-adv-x="911" d=" M896,169 L896,0 L32,0 Q37,99 59.5,162 Q82,225 138,273.5 Q194,322 280.5,352 Q367,382 509,409 Q565,421 586.5,433 Q608,445 608,465 Q608,515 498,515 Q428,515 389,493 Q358,474 349,427 L39,427 Q44,491 66.5,532.5 Q89,574 135,608 Q239,685 482,685 Q693,685 802,625 Q911,565 911,448 Q911,322 777,273 Q711,249 537,225 Q440,212 406,202.5 Q372,193 331,169"/> 
            <glyph glyph-name="1" unicode="&#x31;" horiz-adv-x="918" d=" M33,226 L336,226 Q345,188 368,172 Q400,151 473,151 Q547,151 580.5,168 Q614,185 614,222 Q614,255 587,266 Q572,274 506,274 L422,274 L422,436 L480,436 Q550,437 563,440 Q590,448 590,473 Q590,525 482,525 Q442,525 408,517 Q385,512 373.5,503 Q362,494 352,473 L48,473 Q57,535 82,571 Q107,607 160,634 Q264,685 494,685 Q893,685 893,486 Q893,440 870,414 Q847,388 789,368 Q849,347 875,321 Q918,278 918,213 Q918,101 804.5,41.5 Q691,-18 476,-18 Q209,-18 114,57 Q77,87 59,124.5 Q41,162 33,226"/> 
            <glyph glyph-name="2" unicode="&#x32;" horiz-adv-x="900" d=" M523,0 L523,106 L37,106 L37,287 L426,667 L782,667 L782,295 L900,295 L900,106 L782,106 L782,0 M523,295 L523,493 L320,295"/> 
            <glyph glyph-name="3" unicode="&#x33;" horiz-adv-x="909" d=" M27,221 L306,221 Q322,183 358,166.5 Q394,150 461,150 Q529,150 567.5,170.5 Q606,191 606,228 Q606,306 452,306 Q374,306 313,279 L67,279 L112,667 L856,667 L856,501 L300,501 L291,427 Q390,461 535,461 Q714,461 811.5,402 Q909,343 909,235 Q909,107 797.5,44.5 Q686,-18 457,-18 Q212,-18 109,54 Q65,84 47,120.5 Q29,157 27,221"/> 
            <glyph glyph-name="4" unicode="&#x34;" horiz-adv-x="911" d=" M882,472 L588,472 Q577,497 558,505.5 Q539,514 497,514 Q408,514 363,475 Q337,452 328,399 Q430,431 552,431 Q723,431 817,375 Q911,319 911,218 Q911,104 799,43 Q687,-18 478,-18 Q256,-18 143,70 Q31,159 31,333 Q31,508 149,596.5 Q267,685 500,685 Q710,685 815,604 Q846,580 861.5,550 Q877,520 882,472 M475,280 Q415,280 378.5,262.5 Q342,245 342,216 Q342,185 378,167.5 Q414,150 476,150 Q536,150 572,168 Q608,186 608,215 Q608,245 572,262.5 Q536,280 475,280"/> 
            <glyph glyph-name="5" unicode="&#x35;" horiz-adv-x="904" d=" M479,0 L130,0 Q151,141 238,233 Q297,291 487,411 Q554,455 592,498 L39,498 L39,667 L904,667 Q904,547 863,475.5 Q822,404 689,292 Q582,203 538.5,142 Q495,81 479,0"/> 
            <glyph glyph-name="6" unicode="&#x36;" horiz-adv-x="906" d=" M128,360 Q84,383 65.5,411.5 Q47,440 47,484 Q47,581 136,623 Q268,685 471,685 Q673,685 807,623 Q895,581 895,483 Q895,439 876.5,411 Q858,383 815,360 Q864,335 885,301 Q906,267 906,214 Q906,110 821,53 Q763,13 685.5,-2.5 Q608,-18 471,-18 Q334,-18 256.5,-2.5 Q179,13 121,53 Q36,110 36,214 Q36,267 57,300.5 Q78,334 128,360 M471,274 Q398,274 364.5,259.5 Q331,245 331,214 Q331,180 363.5,165.5 Q396,151 472,151 Q545,151 578,165.5 Q611,180 611,212 Q611,245 578.5,259.5 Q546,274 471,274 M471,524 Q404,524 374.5,513.5 Q345,503 345,479 Q345,453 373.5,442 Q402,431 470,431 Q538,431 567.5,442 Q597,453 597,478 Q597,503 568,513.5 Q539,524 471,524"/> 
            <glyph glyph-name="7" unicode="&#x37;" horiz-adv-x="909" d=" M53,203 L338,203 Q368,144 467,144 Q543,144 583,182 Q610,207 622,264 Q550,233 424,233 Q35,233 35,450 Q35,504 62.5,550.5 Q90,597 139,622 Q257,685 451,685 Q653,685 776,608 Q909,525 909,335 Q909,-18 472,-18 Q246,-18 135,61 Q73,105 53,203 M473,516 Q339,516 339,449 Q339,380 474,380 Q606,380 606,448 Q606,516 473,516"/> 
            <glyph glyph-name="8" unicode="&#x38;" horiz-adv-x="271" d=" M54,292 L54,501 L271,501 L271,292 M54,0 L54,209 L271,209 L271,0"/> 
            <glyph glyph-name="9" unicode="&#x39;" horiz-adv-x="271" d=" M54,292 L54,501 L271,501 L271,292 M54,0 L54,193 L271,193 L271,27 Q271,-23 253.5,-52 Q236,-81 192,-105 Q146,-131 73,-143 L54,-71 Q96,-64 115.5,-47.5 Q135,-31 137,0"/> 
            <glyph glyph-name=":" unicode="&#x3A;" horiz-adv-x="466" d=" M466,680 L466,462 L264,339 L465,215 L466,-1 L33,249 L33,430"/> 
            <glyph glyph-name=";" unicode="&#x3B;" horiz-adv-x="728" d=" M215,355 L215,475 L728,475 L728,355 M215,185 L215,305 L728,305 L728,185"/> 
            <glyph glyph-name="&lt;" unicode="&#x3C;" horiz-adv-x="466" d=" M33,-1 L33,216 L236,340 L34,464 L33,680 L466,430 L466,248"/> 
            <glyph glyph-name="=" unicode="&#x3D;" horiz-adv-x="782" d=" M285,0 L285,211 L513,211 L513,0 M513,254 L285,254 Q291,322 318.5,354.5 Q346,387 423,417 Q472,437 489.5,453 Q507,469 507,492 Q507,519 481,534.5 Q455,550 409,550 Q348,550 319,527 Q290,504 285,451 L20,451 Q23,508 40.5,545 Q58,582 96,612 Q192,688 402,688 Q582,688 682,632 Q782,576 782,476 Q782,434 762,399.5 Q742,365 707,346 Q664,325 571,299 Q544,291 533.5,282.5 Q523,274 513,254"/> 
            <glyph glyph-name="&gt;" unicode="&#x3E;" horiz-adv-x="855" d=" M577,493 L676,493 L631,298 Q623,262 623,253 Q623,237 631,228 Q639,219 653,219 Q693,219 725.5,271.5 Q758,324 758,387 Q758,481 695,541 Q628,605 472,605 Q298,605 218,525 Q139,448 139,326 Q139,212 211,137 Q250,96 307,78.5 Q364,61 455,61 Q591,61 696,94 L719,12 Q611,-21 452,-21 Q337,-21 262,2 Q187,25 134,77 Q33,176 33,328 Q33,400 59.5,466.5 Q86,533 134,581 Q186,633 244,653 Q349,687 478,687 Q583,687 649.5,667.5 Q716,648 763,603 Q806,563 830.5,506.5 Q855,450 855,391 Q855,295 793.5,223 Q732,151 650,151 Q615,151 589,166.5 Q563,182 555,208 Q531,178 490.5,160.5 Q450,143 406,143 Q341,143 298,188.5 Q255,234 255,303 Q255,385 311,449 Q338,480 367.5,492 Q397,504 443,504 Q531,504 567,451 M457,415 Q420,415 392,382 Q364,349 364,305 Q364,271 383.5,249.5 Q403,228 434,228 Q471,228 498,261.5 Q525,295 525,340 Q525,373 506.5,394 Q488,415 457,415"/> 
            <glyph glyph-name="?" unicode="&#x3F;" horiz-adv-x="864" d=" M-7,0 L260,667 L597,667 L864,0 L585,0 L557,61 L285,61 L260,0 M331,231 L507,231 L421,476"/> 
            <glyph glyph-name="@" unicode="&#x40;" horiz-adv-x="931" d=" M65,0 L65,667 L592,667 Q737,667 797,643 Q840,626 865,585.5 Q890,545 890,494 Q890,451 874,423 Q858,395 819,369 Q854,353 870,341.5 Q886,330 900,310 Q931,262 931,201 Q931,148 910,104 Q889,60 853,37 Q819,16 771.5,8 Q724,0 636,0 M320,162 L534,162 Q600,163 613.5,164 Q627,165 637,171 Q658,182 658,210 Q658,240 631,250 Q618,255 534,256 L320,256 M320,419 L505,419 Q565,419 586,423 Q618,429 618,463 Q618,489 596,497.5 Q574,506 506,506 L320,506"/> 
            <glyph glyph-name="A" unicode="&#x41;" horiz-adv-x="954" d=" M661,249 L954,249 Q946,176 920,131.5 Q894,87 838,52 Q775,12 696.5,-4.5 Q618,-21 494,-21 Q372,-21 293.5,-0.5 Q215,20 156,67 Q37,160 37,337 Q37,514 153,599 Q274,688 500,688 Q765,688 882,578 Q940,521 954,412 L661,412 Q645,470 608.5,494 Q572,518 501,518 Q411,518 364.5,473 Q318,428 318,341 Q318,250 366,199.5 Q414,149 501,149 Q580,149 618,182 Q638,200 661,249"/> 
            <glyph glyph-name="B" unicode="&#x42;" horiz-adv-x="917" d=" M65,0 L65,667 L507,667 Q609,667 666.5,657.5 Q724,648 768,624 Q917,543 917,325 Q917,92 749,25 Q685,0 511,0 M320,170 L443,170 Q569,170 604,205 Q644,245 644,333 Q644,467 549,490 Q523,497 440,497 L320,497"/> 
            <glyph glyph-name="C" unicode="&#x43;" horiz-adv-x="851" d=" M65,0 L65,667 L820,667 L820,497 L320,497 L320,423 L734,423 L734,253 L320,253 L320,170 L851,170 L851,0"/> 
            <glyph glyph-name="D" unicode="&#x44;" horiz-adv-x="828" d=" M65,0 L65,667 L828,667 L828,497 L320,497 L320,419 L740,419 L740,249 L320,249 L320,0"/> 
            <glyph glyph-name="E" unicode="&#x45;" horiz-adv-x="943" d=" M943,371 L943,2 L833,2 L799,74 Q754,30 698,11 Q604,-21 478,-21 Q267,-21 152,70.5 Q37,162 37,331 Q37,417 70,488.5 Q103,560 163,603 Q281,688 491,688 Q715,688 834,602 Q884,566 909,527 Q934,488 943,431 L640,431 Q608,518 494,518 Q411,518 364.5,470.5 Q318,423 318,339 Q318,247 370.5,198 Q423,149 521,149 Q646,149 674,226 L561,226 L561,371"/> 
            <glyph glyph-name="F" unicode="&#x46;" horiz-adv-x="873" d=" M65,0 L65,667 L320,667 L320,432 L618,432 L618,667 L873,667 L873,0 L618,0 L618,262 L320,262 L320,0"/> 
            <glyph glyph-name="G" unicode="&#x47;" horiz-adv-x="322" d=" M67,0 L67,667 L322,667 L322,0"/> 
            <glyph glyph-name="H" unicode="&#x48;" horiz-adv-x="740" d=" M485,667 L740,667 L740,316 Q740,202 734,164 Q728,126 704,91 Q628,-21 394,-21 Q261,-21 170.5,11.5 Q80,44 45,104 Q16,154 16,280 L270,280 Q273,206 296.5,177.5 Q320,149 379,149 Q452,149 471,196 Q485,235 485,333"/> 
            <glyph glyph-name="I" unicode="&#x49;" horiz-adv-x="944" d=" M65,0 L65,667 L320,667 L320,416 L580,667 L926,667 L649,429 L944,0 L621,0 L437,280 L320,169 L320,0"/> 
            <glyph glyph-name="J" unicode="&#x4A;" horiz-adv-x="797" d=" M65,0 L65,667 L320,667 L320,170 L797,170 L797,0"/> 
            <glyph glyph-name="K" unicode="&#x4B;" horiz-adv-x="1110" d=" M65,0 L65,667 L484,667 L591,361 L694,667 L1110,667 L1110,0 L855,0 L855,460 L694,0 L484,0 L320,460 L320,0"/> 
            <glyph glyph-name="L" unicode="&#x4C;" horiz-adv-x="891" d=" M65,0 L65,667 L353,667 L636,302 L636,667 L891,667 L891,0 L611,0 L320,362 L320,0"/> 
            <glyph glyph-name="M" unicode="&#x4D;" horiz-adv-x="945" d=" M491,688 Q615,688 697.5,666 Q780,644 842,594 Q945,512 945,333 Q945,152 834.5,65 Q724,-22 494,-22 Q369,-22 285.5,0 Q202,22 140,72 Q37,156 37,339 Q37,511 140,594 Q257,688 491,688 M491,518 Q407,518 362.5,471 Q318,424 318,336 Q318,148 492,148 Q576,148 620,195 Q664,242 664,333 Q664,424 620,471 Q576,518 491,518"/> 
            <glyph glyph-name="N" unicode="&#x4E;" horiz-adv-x="866" d=" M65,0 L65,667 L563,667 Q700,667 754,642 Q866,593 866,445 Q866,273 722,235 Q678,224 565,224 L320,224 L320,0 M320,385 L480,385 Q548,385 564,395 Q593,413 593,454 Q593,491 569,504.5 Q545,518 481,518 L320,518"/> 
            <glyph glyph-name="O" unicode="&#x4F;" horiz-adv-x="944" d=" M924,-22 L801,-141 L670,-6 Q581,-22 489,-22 Q256,-22 146.5,65 Q37,152 37,336 Q37,512 139,593 Q257,688 493,688 Q724,688 840,595 Q944,510 944,332 Q944,206 895,130 Q876,100 835,67 M593,314 L652,254 Q663,291 663,329 Q663,518 491,518 Q318,518 318,332 Q318,148 491,148 Q506,148 517,150 L472,195"/> 
            <glyph glyph-name="P" unicode="&#x50;" horiz-adv-x="863" d=" M65,0 L65,667 L559,667 Q655,667 693.5,662.5 Q732,658 766,644 Q809,626 834,581 Q859,536 859,475 Q859,391 821,348 Q794,319 728,304 Q781,289 802.5,270 Q824,251 833,213 Q842,175 845,84 Q847,45 849.5,31.5 Q852,18 863,0 L596,0 Q591,33 588,88 Q586,146 582.5,172 Q579,198 564.5,215.5 Q550,233 530,236 Q510,239 465,239 L320,239 L320,0 M320,380 L489,380 Q544,380 560,391 Q586,409 586,447 Q586,483 565.5,497 Q545,511 491,511 L320,511"/> 
            <glyph glyph-name="Q" unicode="&#x51;" horiz-adv-x="899" d=" M29,200 L383,200 Q400,172 427.5,160.5 Q455,149 502,149 Q593,149 593,192 Q593,218 562,227 Q537,234 373,250 Q244,264 163,291 Q35,333 35,458 Q35,571 144,629.5 Q253,688 462,688 Q675,688 777,622 Q818,596 840,563 Q862,530 878,471 L545,471 Q522,532 425,532 Q385,532 362,520 Q339,508 339,488 Q339,475 345,468 Q351,461 377.5,454 Q404,447 444,441.5 Q484,436 567,428 Q706,414 776,388 Q899,341 899,214 Q899,95 790,37 Q681,-21 457,-21 Q240,-21 139,35 Q85,64 60.5,101 Q36,138 29,200"/> 
            <glyph glyph-name="R" unicode="&#x52;" horiz-adv-x="776" d=" M264,0 L264,497 L10,497 L10,667 L776,667 L776,497 L519,497 L519,0"/> 
            <glyph glyph-name="S" unicode="&#x53;" horiz-adv-x="860" d=" M59,667 L314,667 L314,325 Q314,231 348,190 Q382,149 460,149 Q538,149 571.5,189.5 Q605,230 605,325 L605,667 L860,667 L860,314 Q860,212 849,166 Q838,120 803,80 Q717,-21 460,-21 Q179,-21 99,103 Q75,139 67,180.5 Q59,222 59,307"/> 
            <glyph glyph-name="T" unicode="&#x54;" horiz-adv-x="873" d=" M290,0 L-7,667 L272,667 L441,264 L605,667 L873,667 L589,0"/> 
            <glyph glyph-name="U" unicode="&#x55;" horiz-adv-x="1245" d=" M226,0 L-7,667 L263,667 L382,302 L496,667 L744,667 L864,302 L975,667 L1245,667 L1021,0 L729,0 L618,354 L511,0"/> 
            <glyph glyph-name="V" unicode="&#x56;" horiz-adv-x="888" d=" M-14,0 L271,356 L15,667 L345,667 L446,539 L543,667 L862,667 L603,349 L888,0 L555,0 L431,161 L302,0"/> 
            <glyph glyph-name="W" unicode="&#x57;" horiz-adv-x="866" d=" M295,0 L295,168 L-13,667 L287,667 L428,420 L571,667 L866,667 L551,168 L551,0"/> 
            <glyph glyph-name="X" unicode="&#x58;" horiz-adv-x="835" d=" M27,0 L27,148 L436,497 L47,497 L47,667 L835,667 L835,514 L434,170 L827,170 L827,0"/> 
            <glyph glyph-name="Y" unicode="&#x59;" horiz-adv-x="441" d=" M59,-97 L59,667 L441,667 L441,514 L271,514 L271,56 L441,56 L441,-97"/> 
            <glyph glyph-name="Z" unicode="&#x5A;" horiz-adv-x="444" d=" M444,-97 L266,-97 L19,667 L197,667"/> 
            <glyph glyph-name="[" unicode="&#x5B;" horiz-adv-x="430" d=" M430,667 L430,-97 L47,-97 L47,56 L218,56 L218,514 L47,514 L47,667"/> 
            <glyph glyph-name="\" unicode="&#x5C;" horiz-adv-x="501" d=" M189,327 L0,327 L130,672 L371,672 L501,327 L312,327 L251,526"/> 
            <glyph glyph-name="]" unicode="&#x5D;" horiz-adv-x="500" d=" M0,-42 L500,-42 L500,-168 L0,-168"/> 
            <glyph glyph-name="^" unicode="&#x5E;" horiz-adv-x="420" d=" M192,564 L53,690 L357,690 L420,564"/> 
            <glyph glyph-name="_" unicode="&#x5F;" horiz-adv-x="803" d=" M323,362 L72,352 Q84,406 108,436 Q132,466 180,487 Q260,523 417,523 Q681,523 749,442 Q768,420 775,390.5 Q782,361 782,306 L782,111 Q782,65 786,43 Q790,21 803,0 L562,0 L558,45 Q501,13 446,0 Q391,-13 315,-13 Q181,-13 106,32.5 Q31,78 31,160 Q31,246 120,280 Q233,321 444,326 Q512,327 531,331.5 Q550,336 550,350 Q550,370 516.5,382.5 Q483,395 431,395 Q346,395 323,362 M552,215 L552,227 Q520,222 460,220 Q388,219 351,215 Q304,207 304,174 Q304,132 396,132 Q485,132 518.5,150 Q552,168 552,215"/> 
            <glyph glyph-name="`" unicode="&#x60;" horiz-adv-x="802" d=" M54,667 L283,667 L283,466 Q385,514 488,514 Q632,514 717,444 Q802,374 802,255 Q802,131 718.5,59 Q635,-13 491,-13 Q428,-13 383.5,1 Q339,15 283,52 L283,0 L54,0 M477,352 Q353,352 317.5,325 Q282,298 282,251 Q282,201 316.5,173.5 Q351,146 415,146 Q477,146 512,173 Q547,200 547,249 Q547,298 477,352"/> 
            <glyph glyph-name="a" unicode="&#x61;" horiz-adv-x="810" d=" M554,218 L810,218 Q802,159 786,123 Q770,87 738,58 Q651,-21 441,-21 Q259,-21 156,28 Q98,56 65,114.5 Q32,173 32,249 Q32,335 69.5,395.5 Q107,456 177,483 Q281,523 424,523 Q527,523 617,500 Q744,466 789,373 Q802,347 810,303 L547,303 Q517,376 424,376 Q360,376 323.5,342.5 Q287,309 287,250 Q287,190 323.5,156 Q360,122 425,122 Q481,122 511.5,145 Q542,168 554,218"/> 
            <glyph glyph-name="b" unicode="&#x62;" horiz-adv-x="780" d=" M780,667 L780,0 L551,0 L551,52 Q495,15 450,1 Q405,-13 342,-13 Q199,-13 115.5,59 Q32,131 32,255 Q32,374 117,444 Q202,514 346,514 Q451,514 551,466 L551,667 M419,352 Q357,352 322,325 Q287,298 287,249 Q287,200 322,173 Q357,146 419,146 Q482,146 517,173 Q552,200 552,247 Q552,297 517.5,324.5 Q483,352 419,352"/> 
            <glyph glyph-name="c" unicode="&#x63;" horiz-adv-x="786" d=" M786,189 L285,189 Q298,147 326,131 Q364,111 428,111 Q466,111 486.5,118.5 Q507,126 525,146 L786,146 Q773,100 753,73.5 Q733,47 695,27 Q603,-21 439,-21 Q238,-21 138,38 Q89,68 60.5,126 Q32,184 32,255 Q32,317 54.5,368 Q77,419 117,447 Q222,522 412,522 Q535,522 623,487 Q711,452 748,389 Q768,355 776.5,311.5 Q785,268 786,189 M287,316 L539,316 Q517,386 414,386 Q312,386 287,316"/> 
            <glyph glyph-name="d" unicode="&#x64;" horiz-adv-x="401" d=" M82,0 L82,366 L7,366 L7,501 L82,501 L82,548 Q82,627 120.5,657.5 Q159,688 259,688 Q298,688 401,682 L401,548 Q340,548 326.5,540.5 Q313,533 311,501 L401,501 L401,366 L311,366 L311,0"/> 
            <glyph glyph-name="e" unicode="&#x65;" horiz-adv-x="789" d=" M789,501 L789,102 Q789,-8 752,-59 Q719,-106 631,-130 Q536,-155 394,-155 Q228,-155 149,-117 Q70,-79 53,7 L325,7 Q340,-12 358.5,-19 Q377,-26 413,-26 Q500,-26 533,10 Q555,33 560,92 Q488,44 366,44 Q191,44 101,110 Q69,134 51,177 Q33,220 33,270 Q33,384 116,449 Q199,514 344,514 Q487,514 560,447 L560,501 M426,352 Q362,352 325,328.5 Q288,305 288,264 Q288,222 324.5,198 Q361,174 425,174 Q486,174 523,199 Q560,224 560,264 Q560,304 523.5,328 Q487,352 426,352"/> 
            <glyph glyph-name="f" unicode="&#x66;" horiz-adv-x="753" d=" M54,0 L54,667 L283,667 L283,453 Q342,487 393.5,500.5 Q445,514 515,514 Q692,514 736,405 Q747,379 750,350 Q753,321 753,249 L753,0 L524,0 L524,207 Q524,285 507,316 Q485,354 415,354 Q331,354 300,297 Q283,269 283,207 L283,0"/> 
            <glyph glyph-name="g" unicode="&#x67;" horiz-adv-x="283" d=" M54,0 L54,501 L283,501 L283,0 M54,548 L54,667 L283,667 L283,548"/> 
            <glyph glyph-name="h" unicode="&#x68;" horiz-adv-x="290" d=" M-31,-136 L-31,-3 L-16,-4 L11,-5 Q40,-5 50.5,8.5 Q61,22 61,60 L61,501 L290,501 L290,47 Q290,-63 277,-96 Q252,-158 130,-158 Q60,-158 -31,-136 M61,548 L61,667 L290,667 L290,548"/> 
            <glyph glyph-name="i" unicode="&#x69;" horiz-adv-x="778" d=" M54,0 L54,667 L283,667 L283,346 L448,501 L760,501 L554,325 L778,0 L491,0 L370,193 L283,116 L283,0"/> 
            <glyph glyph-name="j" unicode="&#x6A;" horiz-adv-x="283" d=" M54,0 L54,667 L283,667 L283,0"/> 
            <glyph glyph-name="k" unicode="&#x6B;" horiz-adv-x="1215" d=" M54,0 L54,501 L274,501 L274,438 Q370,514 512,514 Q588,514 636,496.5 Q684,479 720,438 Q775,479 833.5,496.5 Q892,514 973,514 Q1149,514 1195,403 Q1215,357 1215,268 L1215,0 L986,0 L986,192 Q986,261 977,291 Q956,354 876,354 Q801,354 770,310 Q748,278 748,210 L748,0 L519,0 L519,193 Q519,274 508,303 Q488,354 410,354 Q333,354 303,305 Q283,275 283,211 L283,0"/> 
            <glyph glyph-name="l" unicode="&#x6C;" horiz-adv-x="753" d=" M54,0 L54,501 L283,501 L283,453 Q343,487 394,500.5 Q445,514 514,514 Q692,514 736,405 Q747,379 750,350 Q753,321 753,249 L753,0 L524,0 L524,207 Q524,285 507,316 Q485,354 415,354 Q331,354 300,297 Q283,269 283,207 L283,0"/> 
            <glyph glyph-name="m" unicode="&#x6D;" horiz-adv-x="813" d=" M423,523 Q565,523 668,484 Q738,456 775.5,396 Q813,336 813,251 Q813,166 775.5,106 Q738,46 668,19 Q568,-21 424,-21 Q279,-21 177,19 Q32,75 32,256 Q32,337 70.5,397 Q109,457 177,484 Q280,523 423,523 M483,378 Q363,378 325,343 Q287,308 287,253 Q287,195 324,159.5 Q361,124 423,124 Q483,124 520.5,159.5 Q558,195 558,251 Q558,307 483,378"/> 
            <glyph glyph-name="n" unicode="&#x6E;" horiz-adv-x="810" d=" M54,501 L283,501 L283,454 Q330,488 375.5,501 Q421,514 493,514 Q625,514 707,457 Q810,383 810,251 Q810,191 786.5,138 Q763,85 721,51 Q641,-13 489,-13 Q362,-13 283,39 L283,-145 L54,-145 M555,354 Q283,354 283,253 Q283,148 419,148 Q555,148 555,354"/> 
            <glyph glyph-name="o" unicode="&#x6F;" horiz-adv-x="789" d=" M789,501 L789,-145 L560,-145 L560,39 Q479,-13 354,-13 Q202,-13 122,51 Q81,85 57,138 Q33,191 33,251 Q33,383 136,457 Q216,514 351,514 Q423,514 468.5,501 Q514,488 560,454 L560,501 M424,354 Q288,354 288,251 Q288,148 424,148 Q561,148 561,249 Q561,354 424,354"/> 
            <glyph glyph-name="p" unicode="&#x70;" horiz-adv-x="663" d=" M54,0 L54,501 L283,501 L283,453 Q368,514 470,514 Q616,514 649,410 Q662,371 663,268 L433,268 Q431,312 415,331 Q399,350 363,350 Q321,350 302,322.5 Q283,295 283,234 L283,0"/> 
            <glyph glyph-name="q" unicode="&#x71;" horiz-adv-x="744" d=" M21,164 L298,150 Q311,130 332,122 Q353,114 392,114 Q460,114 460,145 Q460,162 436,166 Q397,173 237,194 Q123,210 74.5,246 Q26,282 26,350 Q26,439 105.5,481 Q185,523 352,523 Q564,523 650,468 Q684,446 700.5,421.5 Q717,397 727,352 L433,362 Q413,385 351,385 Q291,385 291,359 Q291,345 307,339.5 Q323,334 368,332 Q577,320 660.5,280.5 Q744,241 744,154 Q744,-21 399,-21 Q181,-21 96,35 Q59,60 43,87.5 Q27,115 21,164"/> 
            <glyph glyph-name="r" unicode="&#x72;" horiz-adv-x="390" d=" M390,129 L390,0 L253,0 Q181,0 145.5,12 Q110,24 94,54 Q85,72 83,90 Q81,108 81,180 L81,366 L0,366 L0,501 L81,501 L81,667 L310,667 L310,501 L390,501 L390,366 L310,366 L310,182 Q310,148 321.5,138.5 Q333,129 374,129"/> 
            <glyph glyph-name="s" unicode="&#x73;" horiz-adv-x="753" d=" M753,501 L753,0 L524,0 L524,48 Q464,14 412.5,0.5 Q361,-13 292,-13 Q118,-13 72,92 Q61,117 57.5,148 Q54,179 54,251 L54,501 L283,501 L283,294 Q283,216 300,185 Q322,147 392,147 Q476,147 507,203 Q524,233 524,294 L524,501"/> 
            <glyph glyph-name="t" unicode="&#x74;" horiz-adv-x="714" d=" M228,0 L-7,501 L247,501 L361,228 L474,501 L714,501 L483,0"/> 
            <glyph glyph-name="u" unicode="&#x75;" horiz-adv-x="1184" d=" M237,0 L-7,501 L247,501 L364,257 L474,501 L728,501 L838,257 L950,501 L1184,501 L953,0 L715,0 L596,257 L467,0"/> 
            <glyph glyph-name="v" unicode="&#x76;" horiz-adv-x="790" d=" M790,0 L500,0 L397,115 L282,0 L-16,0 L243,269 L22,501 L314,501 L401,403 L489,501 L774,501 L552,267"/> 
            <glyph glyph-name="w" unicode="&#x77;" horiz-adv-x="727" d=" M55,-139 L55,30 Q115,1 166,1 Q194,1 227,10 L-7,501 L250,501 L376,215 L490,501 L727,501 L583,144 Q505,-49 452,-100 Q392,-158 240,-158 Q151,-158 55,-139"/> 
            <glyph glyph-name="x" unicode="&#x78;" horiz-adv-x="687" d=" M20,0 L20,127 L316,348 L49,348 L49,501 L687,501 L687,376 L364,153 L680,153 L680,0"/> 
            <glyph glyph-name="y" unicode="&#x79;" horiz-adv-x="421" d=" M268,469 L268,402 Q268,346 240,318 Q229,306 188,287 Q234,267 251,242 Q268,217 268,172 L268,104 Q269,61 280.5,50.5 Q292,40 342,40 L421,40 L421,-97 L274,-97 Q165,-97 118,-66.5 Q71,-36 71,35 L71,163 Q71,201 59.5,219 Q48,237 19,242 L19,340 Q71,350 71,410 L71,539 Q71,608 117.5,637.5 Q164,667 273,667 L421,667 L421,534 L342,534 Q292,534 280.5,524 Q269,514 268,469"/> 
            <glyph glyph-name="z" unicode="&#x7A;" horiz-adv-x="360" d=" M140,667 L360,667 L360,-167 L140,-167"/> 
            <glyph glyph-name="{" unicode="&#x7B;" horiz-adv-x="469" d=" M220,101 L220,168 Q220,224 248,252 Q261,265 300,283 Q254,303 237,328 Q220,353 220,398 L220,466 Q219,509 207.5,519.5 Q196,530 146,530 L67,530 L67,667 L214,667 Q323,667 370,636.5 Q417,606 417,535 L417,407 Q417,369 428.5,351 Q440,333 469,328 L469,230 Q441,224 429,207.5 Q417,191 417,160 L417,31 Q417,-38 370.5,-67.5 Q324,-97 215,-97 L67,-97 L67,36 L146,36 Q196,36 207.5,46 Q219,56 220,101"/> 
            <glyph glyph-name="|" unicode="&#x7C;" horiz-adv-x="579" d=" M194,525 L91,613 Q123,698 161,735 Q199,772 253,772 Q271,772 289.5,766.5 Q308,761 395,732 Q413,725 424,725 Q442,725 456,742 Q462,748 476,775 L579,688 Q546,604 510,567 Q471,526 418,526 Q393,526 271,569 Q256,574 244,574 Q219,574 194,525"/> 
            <glyph glyph-name="}" unicode="&#x7D;" horiz-adv-x="307" d=" M296,555 L296,354 L72,354 L72,555 M271,304 L307,-112 L61,-112 L98,304"/> 
            <glyph glyph-name="~" unicode="&#x7E;" horiz-adv-x="878" d=" M612,309 L878,309 Q865,71 533,59 L533,-47 L428,-47 L428,59 Q293,64 204,105 Q137,136 101,198 Q65,260 65,344 Q65,527 234,590 Q303,617 428,625 L428,727 L535,727 L535,625 Q700,611 777.5,559 Q855,507 878,397 L603,397 Q570,473 476,473 Q408,473 370.5,438.5 Q333,404 333,341 Q333,276 371.5,241.5 Q410,207 481,207 Q538,207 568,230.5 Q598,254 612,309"/> 
            <glyph glyph-name="Č" unicode="&#x10C;" horiz-adv-x="917" d=" M65,0 L65,667 L507,667 Q609,667 666.5,657.5 Q724,648 768,624 Q917,543 917,325 Q917,92 749,25 Q685,0 511,0 M320,170 L443,170 Q569,170 604,205 Q644,245 644,333 Q644,467 549,490 Q523,497 440,497 L320,497 M753,867 L582,740 L315,740 L160,867 L425,867 L468,824 L514,867"/> 
            <glyph glyph-name="č" unicode="&#x10D;" horiz-adv-x="1076" d=" M780,667 L780,0 L551,0 L551,52 Q495,15 450,1 Q405,-13 342,-13 Q199,-13 115.5,59 Q32,131 32,255 Q32,374 117,444 Q202,514 346,514 Q451,514 551,466 L551,667 M419,352 Q357,352 322,325 Q287,298 287,249 Q287,200 322,173 Q357,146 419,146 Q482,146 517,173 Q552,200 552,247 Q552,297 517.5,324.5 Q483,352 419,352 M819,426 L857,667 L1076,667 L950,426"/> 
            <glyph glyph-name="Ď" unicode="&#x10E;" horiz-adv-x="916" d=" M65,0 L65,300 L5,300 L5,390 L65,390 L65,667 L506,667 Q610,667 665.5,658 Q721,649 767,624 Q916,543 916,324 Q916,92 748,26 Q709,10 662,5 Q615,0 510,0 M320,170 L443,170 Q505,170 534.5,174.5 Q564,179 587,193 Q643,225 643,332 Q643,465 549,490 Q522,497 440,497 L320,497 L320,390 L446,390 L446,300 L320,300"/> 
            <glyph glyph-name="ď" unicode="&#x10F;" horiz-adv-x="844" d=" M780,619 L844,619 L844,550 L780,550 L780,0 L551,0 L551,52 Q495,15 450.5,1 Q406,-13 343,-13 Q199,-13 115.5,59 Q32,131 32,255 Q32,374 117,444 Q202,514 346,514 Q449,514 551,466 L551,550 L435,550 L435,619 L551,619 L551,667 L780,667 M419,352 Q357,352 322,325 Q287,298 287,249 Q287,200 322,173 Q357,146 420,146 Q482,146 517,173 Q552,200 552,247 Q552,297 517.5,324.5 Q483,352 419,352"/> 
            <glyph glyph-name="Đ" unicode="&#x110;" horiz-adv-x="851" d=" M65,0 L65,667 L820,667 L820,497 L320,497 L320,423 L734,423 L734,253 L320,253 L320,170 L851,170 L851,0 M163,756 L163,848 L749,848 L749,756"/> 
            <glyph glyph-name="đ" unicode="&#x111;" horiz-adv-x="786" d=" M786,189 L285,189 Q298,147 326,131 Q364,111 428,111 Q466,111 486.5,118.5 Q507,126 525,146 L786,146 Q773,100 753,73.5 Q733,47 695,27 Q603,-21 439,-21 Q238,-21 138,38 Q89,68 60.5,126 Q32,184 32,255 Q32,317 54.5,368 Q77,419 117,447 Q222,522 412,522 Q535,522 623,487 Q711,452 748,389 Q768,355 776.5,311.5 Q785,268 786,189 M287,316 L539,316 Q517,386 414,386 Q312,386 287,316 M140,584 L140,673 L702,673 L702,584"/> 
            <glyph glyph-name="Ē" unicode="&#x112;" horiz-adv-x="851" d=" M65,0 L65,667 L820,667 L820,497 L320,497 L320,423 L734,423 L734,253 L320,253 L320,170 L851,170 L851,0 M328,742 L328,868 L560,868 L560,742"/> 
            <glyph glyph-name="ē" unicode="&#x113;" horiz-adv-x="786" d=" M786,189 L285,189 Q298,147 326,131 Q364,111 428,111 Q466,111 486.5,118.5 Q507,126 525,146 L786,146 Q773,100 753,73.5 Q733,47 695,27 Q603,-21 439,-21 Q238,-21 138,38 Q89,68 60.5,126 Q32,184 32,255 Q32,317 54.5,368 Q77,419 117,447 Q222,522 412,522 Q535,522 623,487 Q711,452 748,389 Q768,355 776.5,311.5 Q785,268 786,189 M287,316 L539,316 Q517,386 414,386 Q312,386 287,316 M294,565 L294,684 L524,684 L524,565"/> 
            <glyph glyph-name="Ė" unicode="&#x116;" horiz-adv-x="851" d=" M320,170 L851,170 L851,0 Q795,-5 768,-20 Q720,-46 720,-79 Q720,-98 740,-112.5 Q760,-127 785,-127 Q807,-127 850,-115 L850,-197 Q789,-214 742,-214 Q683,-214 647,-187 Q611,-160 611,-117 Q611,-84 633.5,-57.5 Q656,-31 711,0 L65,0 L65,667 L820,667 L820,497 L320,497 L320,423 L734,423 L734,253 L320,253"/> 
            <glyph glyph-name="ė" unicode="&#x117;" horiz-adv-x="786" d=" M525,146 L786,146 Q774,103 762,85 Q750,67 720,46 Q677,15 645,-21.5 Q613,-58 613,-76 Q613,-93 632,-107 Q651,-121 674,-121 Q692,-121 736,-109 L736,-187 Q676,-203 633,-203 Q577,-203 543,-177.5 Q509,-152 509,-111 Q509,-79 532,-54 Q542,-43 586,-10 Q516,-21 438,-21 Q236,-21 138,39 Q89,68 60.5,126 Q32,184 32,255 Q32,317 54.5,368 Q77,419 117,447 Q222,522 412,522 Q535,522 623,487 Q711,452 748,389 Q767,355 775.5,312 Q784,269 786,189 L285,189 Q298,147 326,131 Q364,111 428,111 Q466,111 486.5,118.5 Q507,126 525,146 M286,316 L539,316 Q517,386 414,386 Q312,386 286,316"/> 
            <glyph glyph-name="Ę" unicode="&#x118;" horiz-adv-x="851" d=" M65,0 L65,667 L820,667 L820,497 L320,497 L320,423 L734,423 L734,253 L320,253 L320,170 L851,170 L851,0 M740,867 L569,740 L302,740 L147,867 L412,867 L455,824 L501,867"/> 
            <glyph glyph-name="ę" unicode="&#x119;" horiz-adv-x="786" d=" M786,189 L285,189 Q298,147 326,131 Q364,111 428,111 Q466,111 486.5,118.5 Q507,126 525,146 L786,146 Q773,100 753,73.5 Q733,47 695,27 Q603,-21 439,-21 Q238,-21 138,38 Q89,68 60.5,126 Q32,184 32,255 Q32,317 54.5,368 Q77,419 117,447 Q222,522 412,522 Q535,522 623,487 Q711,452 748,389 Q768,355 776.5,311.5 Q785,268 786,189 M287,316 L539,316 Q517,386 414,386 Q312,386 287,316 M706,690 L535,565 L268,565 L113,690 L378,690 L421,648 L467,690"/> 
            <glyph glyph-name="Ě" unicode="&#x11A;" horiz-adv-x="943" d=" M943,371 L943,2 L833,2 L799,74 Q754,30 698,11 Q604,-21 478,-21 Q267,-21 152,70.5 Q37,162 37,331 Q37,417 70,488.5 Q103,560 163,603 Q281,688 491,688 Q715,688 834,602 Q884,566 909,527 Q934,488 943,431 L640,431 Q608,518 494,518 Q411,518 364.5,470.5 Q318,423 318,339 Q318,247 370.5,198 Q423,149 521,149 Q646,149 674,226 L561,226 L561,371 M175,876 L322,876 Q346,852 378,844 Q427,833 497,833 Q568,833 621,845 Q650,854 672,876 L819,876 Q794,803 717,769.5 Q640,736 498,736 Q226,736 175,876"/> 
            <glyph glyph-name="ě" unicode="&#x11B;" horiz-adv-x="789" d=" M789,501 L789,102 Q789,-8 752,-59 Q719,-106 631,-130 Q536,-155 394,-155 Q228,-155 149,-117 Q70,-79 53,7 L325,7 Q340,-12 358.5,-19 Q377,-26 413,-26 Q500,-26 533,10 Q555,33 560,92 Q488,44 366,44 Q191,44 101,110 Q69,134 51,177 Q33,220 33,270 Q33,384 116,449 Q199,514 344,514 Q487,514 560,447 L560,501 M426,352 Q362,352 325,328.5 Q288,305 288,264 Q288,222 324.5,198 Q361,174 425,174 Q486,174 523,199 Q560,224 560,264 Q560,304 523.5,328 Q487,352 426,352 M79,690 L226,690 Q270,660 400,660 Q532,660 576,690 L723,690 Q698,625 620.5,594.5 Q543,564 401,564 Q129,564 79,690"/> 
            <glyph glyph-name="Ğ" unicode="&#x11E;" horiz-adv-x="943" d=" M943,371 L943,2 L833,2 L799,74 Q754,30 698,11 Q604,-21 478,-21 Q267,-21 152,70.5 Q37,162 37,331 Q37,417 70,488.5 Q103,560 163,603 Q281,688 491,688 Q715,688 834,602 Q884,566 909,527 Q934,488 943,431 L640,431 Q608,518 494,518 Q411,518 364.5,470.5 Q318,423 318,339 Q318,247 370.5,198 Q423,149 521,149 Q646,149 674,226 L561,226 L561,371 M306,-228 L384,-67 L656,-67 L497,-228"/> 
            <glyph glyph-name="ğ" unicode="&#x11F;" horiz-adv-x="789" d=" M789,501 L789,102 Q789,-8 752,-59 Q719,-106 631,-130 Q536,-155 394,-155 Q228,-155 149,-117 Q70,-79 53,7 L325,7 Q340,-12 358.5,-19 Q377,-26 413,-26 Q500,-26 533,10 Q555,33 560,92 Q488,44 366,44 Q191,44 101,110 Q69,134 51,177 Q33,220 33,270 Q33,384 116,449 Q199,514 344,514 Q487,514 560,447 L560,501 M426,352 Q362,352 325,328.5 Q288,305 288,264 Q288,222 324.5,198 Q361,174 425,174 Q486,174 523,199 Q560,224 560,264 Q560,304 523.5,328 Q487,352 426,352 M350,690 L578,690 L515,564 L211,564"/> 
            <glyph glyph-name="Ģ" unicode="&#x122;" horiz-adv-x="391" d=" M67,0 L67,667 L322,667 L322,0 M-1,756 L-1,848 L391,848 L391,756"/> 
            <glyph glyph-name="ģ" unicode="&#x123;" horiz-adv-x="337" d=" M54,0 L54,501 L283,501 L283,0 M0,584 L0,673 L337,673 L337,584"/> 
            <glyph glyph-name="Ī" unicode="&#x12A;" horiz-adv-x="334" d=" M322,667 L322,0 Q274,-5 239,-28 Q204,-51 204,-79 Q204,-98 224,-112.5 Q244,-127 269,-127 Q290,-127 334,-115 L334,-197 Q271,-214 226,-214 Q167,-214 131,-187 Q95,-160 95,-117 Q95,-68 148,-29 Q163,-18 195,0 L67,0 L67,667"/> 
            <glyph glyph-name="ī" unicode="&#x12B;" horiz-adv-x="289" d=" M283,501 L283,0 Q242,-1 214,-16 Q192,-27 178.5,-44 Q165,-61 165,-75 Q165,-93 184,-107 Q203,-121 226,-121 Q242,-121 289,-109 L289,-187 Q228,-203 186,-203 Q130,-203 96,-177.5 Q62,-152 62,-111 Q62,-79 83.5,-54 Q105,-29 157,0 L54,0 L54,501 M54,548 L54,667 L283,667 L283,548"/> 
            <glyph glyph-name="Į" unicode="&#x12E;" horiz-adv-x="322" d=" M67,0 L67,667 L322,667 L322,0 M79,742 L79,868 L311,868 L311,742"/> 
            <glyph glyph-name="į" unicode="&#x12F;" horiz-adv-x="283" d=" M54,0 L54,501 L283,501 L283,0"/> 
            </font>
</defs>
</svg>
